<?xml version="1.0" standalone="no"?>
<!DOCTYPE svg PUBLIC "-//W3C//DTD SVG 20010904//EN"
 "http://www.w3.org/TR/2001/REC-SVG-20010904/DTD/svg10.dtd">
<svg version="1.0" xmlns="http://www.w3.org/2000/svg"
 width="736.000000pt" height="398.000000pt" viewBox="0 0 736.000000 398.000000"
 preserveAspectRatio="xMidYMid meet">

<g transform="translate(0.000000,398.000000) scale(0.100000,-0.100000)"
fill="#000000" stroke="none">
<path d="M3326 3735 c-24 -24 -20 -55 13 -90 55 -58 117 -161 141 -235 52
-159 18 -363 -84 -499 -14 -19 -23 -39 -19 -45 3 -6 3 -8 -2 -4 -9 9 -35 -9
-35 -24 0 -5 6 -6 13 -2 7 4 9 3 4 -2 -8 -9 -12 -10 -38 -13 -6 0 -8 -8 -5
-17 3 -8 2 -12 -4 -9 -13 8 -52 -33 -44 -47 4 -6 3 -8 -3 -5 -12 8 -73 -59
-73 -80 0 -8 -4 -12 -9 -8 -5 3 -18 -8 -27 -25 -10 -16 -21 -30 -25 -30 -4 0
-6 -11 -5 -25 0 -14 7 -25 15 -25 8 0 11 7 8 20 -6 23 8 28 16 6 7 -19 -18
-40 -38 -32 -11 4 -15 -2 -16 -22 0 -24 -1 -25 -9 -7 -5 13 -3 26 8 38 8 9 13
19 10 22 -3 3 -13 -6 -22 -19 -13 -20 -14 -30 -5 -50 11 -24 13 -24 41 -10 16
8 34 26 40 39 6 14 15 25 20 25 5 0 7 -4 4 -8 -2 -4 -1 -14 4 -22 7 -12 12
-12 22 -2 9 9 9 12 -1 12 -11 0 -11 3 0 16 20 25 65 44 104 44 19 0 35 5 35
10 0 6 18 10 40 10 29 0 40 4 40 15 0 17 73 20 278 8 110 -5 122 -8 122 -25 0
-16 9 -18 76 -18 41 0 85 -5 97 -12 26 -13 99 -69 109 -82 3 -5 20 -9 38 -8
35 1 77 -27 58 -39 -6 -4 2 -14 23 -24 19 -10 42 -24 52 -33 15 -14 17 -13 17
4 0 35 20 -7 21 -46 1 -33 2 -32 9 10 4 25 5 51 2 59 -3 9 -1 12 6 7 8 -4 12
0 12 11 0 10 3 36 7 57 4 28 3 37 -5 32 -8 -5 -10 -2 -6 8 3 9 10 14 14 11 5
-3 11 38 15 91 24 318 -69 604 -264 808 -162 169 -380 258 -712 291 -54 5 -69
3 -83 -10z m88 -865 c-6 -6 -10 -3 -10 10 0 13 4 16 10 10 7 -7 7 -13 0 -20z
m-143 -157 c13 -16 12 -17 -3 -4 -17 13 -22 21 -14 21 2 0 10 -8 17 -17z m-98
-88 c-3 -9 -8 -14 -10 -11 -3 3 -2 9 2 15 9 16 15 13 8 -4z"/>
<path d="M2697 2647 c-70 -70 -197 -238 -201 -263 -1 -7 -7 -18 -13 -25 -20
-25 -80 -162 -106 -244 -63 -195 -88 -407 -71 -597 4 -42 11 -65 17 -61 6 4 8
-5 4 -24 -3 -17 -2 -43 4 -59 8 -27 9 -26 5 9 -3 20 -1 35 3 32 17 -10 33 25
29 65 -3 33 0 40 14 40 10 0 18 7 18 16 0 9 8 23 18 30 16 13 16 13 0 14 -14
0 -18 9 -18 39 0 32 6 44 31 65 17 14 34 26 39 26 4 0 14 30 21 67 11 55 18
69 41 82 18 10 28 24 28 39 0 32 17 62 35 62 24 0 17 18 -7 23 -22 3 -22 4 4
15 34 14 74 53 70 69 -3 12 35 43 51 43 5 0 7 -7 4 -15 -4 -8 -2 -17 3 -20 5
-3 13 9 18 27 6 25 5 34 -5 36 -16 4 -13 34 3 39 7 2 18 -10 25 -27 8 -16 17
-30 21 -30 8 0 3 68 -7 99 -7 23 14 39 26 20 20 -30 27 18 28 190 1 97 4 197
7 223 5 40 3 48 -14 57 -37 20 -53 12 -125 -62z m123 -327 c0 -11 -4 -20 -9
-20 -5 0 -7 9 -4 20 3 11 7 20 9 20 2 0 4 -9 4 -20z"/>
<path d="M3698 2613 c12 -2 32 -2 45 0 12 2 2 4 -23 4 -25 0 -35 -2 -22 -4z"/>
<path d="M3760 2530 c0 -5 9 -10 20 -10 11 0 20 5 20 10 0 6 -9 10 -20 10 -11
0 -20 -4 -20 -10z"/>
<path d="M3882 2532 c-8 -6 -2 -9 18 -9 20 0 26 3 18 9 -7 4 -15 8 -18 8 -3 0
-11 -4 -18 -8z"/>
<path d="M3950 2534 c0 -13 18 -39 24 -34 2 3 -2 14 -10 24 -8 11 -14 16 -14
10z"/>
<path d="M3820 2489 c0 -5 5 -7 10 -4 6 3 10 8 10 11 0 2 -4 4 -10 4 -5 0 -10
-5 -10 -11z"/>
<path d="M3860 2490 c-9 -6 -10 -10 -3 -10 6 0 15 5 18 10 8 12 4 12 -15 0z"/>
<path d="M3048 2478 c-7 -18 2 -39 13 -32 12 7 12 44 0 44 -5 0 -11 -6 -13
-12z"/>
<path d="M3961 2404 c0 -11 3 -14 6 -6 3 7 2 16 -1 19 -3 4 -6 -2 -5 -13z"/>
<path d="M3009 2393 c0 -5 -2 -19 -3 -33 -1 -14 -5 -36 -9 -50 -5 -17 -1 -13
11 10 10 19 15 39 11 44 -4 5 -5 15 -2 22 3 8 2 14 -1 14 -3 0 -6 -3 -7 -7z"/>
<path d="M4295 2370 c3 -5 10 -10 16 -10 5 0 9 5 9 10 0 6 -7 10 -16 10 -8 0
-12 -4 -9 -10z"/>
<path d="M2829 2238 c-7 -20 -8 -69 -1 -87 5 -16 8 -7 8 34 0 46 -3 64 -7 53z"/>
<path d="M2931 2164 c0 -11 3 -14 6 -6 3 7 2 16 -1 19 -3 4 -6 -2 -5 -13z"/>
<path d="M4752 2159 c-13 -5 -21 -13 -17 -18 3 -5 0 -13 -6 -16 -5 -4 -8 -14
-5 -22 3 -8 1 -11 -4 -8 -6 3 -10 2 -10 -4 0 -5 -16 -30 -35 -55 -19 -25 -31
-46 -25 -46 5 0 7 -7 3 -16 -4 -11 -9 -12 -16 -5 -6 6 -15 11 -21 11 -5 0 -1
-6 9 -14 11 -8 25 -12 31 -9 7 2 24 -3 38 -12 20 -13 26 -26 26 -54 0 -25 6
-40 20 -49 11 -6 17 -18 14 -26 -3 -9 5 -21 20 -31 20 -13 26 -26 26 -54 0
-29 6 -40 30 -56 24 -16 30 -27 30 -57 0 -30 4 -38 19 -38 15 0 19 -11 24 -81
7 -83 37 -159 64 -159 9 0 13 -16 13 -52 0 -38 -3 -49 -10 -38 -7 11 -9 7 -5
-15 2 -16 7 -51 10 -77 4 -27 12 -49 20 -52 9 -3 15 0 15 8 0 8 2 20 3 28 2 7
2 10 0 6 -3 -4 -11 -1 -19 6 -16 16 -19 73 -4 96 15 24 20 6 8 -28 -10 -26
-10 -34 1 -44 9 -8 11 -8 7 -1 -3 6 -2 22 3 35 9 21 10 20 10 -11 1 -60 9 -29
27 104 11 87 15 161 11 222 -8 113 -27 224 -39 217 -4 -3 -5 1 -2 9 11 31 -89
263 -109 250 -6 -3 -7 -1 -3 5 6 11 -48 102 -60 102 -3 0 -2 -5 2 -12 4 -7 3
-8 -5 -4 -6 4 -9 11 -6 16 6 9 -40 60 -53 59 -4 0 -17 -4 -30 -10z m-59 -136
c-15 -5 -18 -33 -4 -33 5 0 12 5 14 10 3 6 4 5 3 -2 -3 -16 -18 -20 -35 -9
-12 8 -12 12 -2 25 8 9 19 16 25 15 7 0 6 -2 -1 -6z"/>
<path d="M2852 2140 c0 -14 2 -19 5 -12 2 6 2 18 0 25 -3 6 -5 1 -5 -13z"/>
<path d="M2805 2139 c-4 -6 -5 -12 -2 -15 2 -3 7 2 10 11 7 17 1 20 -8 4z"/>
<path d="M4360 2006 c0 -2 8 -10 18 -17 15 -13 16 -12 3 4 -13 16 -21 21 -21
13z"/>
<path d="M4565 1950 c-3 -5 0 -7 8 -4 7 2 27 0 43 -6 27 -9 28 -9 10 5 -23 17
-52 20 -61 5z"/>
<path d="M2362 1375 c0 -16 2 -22 5 -12 2 9 2 23 0 30 -3 6 -5 -1 -5 -18z"/>
<path d="M2382 1345 c0 -16 2 -22 5 -12 2 9 2 23 0 30 -3 6 -5 -1 -5 -18z"/>
<path d="M4970 1071 c0 -6 4 -13 10 -16 6 -3 7 1 4 9 -7 18 -14 21 -14 7z"/>
<path d="M4891 903 c-1 -17 16 -25 25 -12 4 7 3 9 -4 5 -5 -3 -13 0 -15 6 -4
9 -6 10 -6 1z"/>
</g>
</svg>
