<?xml version="1.0" standalone="no"?>
<!DOCTYPE svg PUBLIC "-//W3C//DTD SVG 20010904//EN"
 "http://www.w3.org/TR/2001/REC-SVG-20010904/DTD/svg10.dtd">
<svg version="1.0" xmlns="http://www.w3.org/2000/svg"
 width="1000.000000pt" height="749.000000pt" viewBox="0 0 1000.000000 749.000000"
 preserveAspectRatio="xMidYMid meet">

<g transform="translate(0.000000,749.000000) scale(0.100000,-0.100000)"
fill="#000000" stroke="none">
<path d="M0 7023 l0 -468 4357 2 c2924 2 4363 0 4373 -7 13 -9 11 -14 -13 -35
-15 -14 -39 -25 -52 -25 -37 0 -85 -32 -85 -57 0 -13 -12 -30 -30 -43 -17 -12
-34 -36 -40 -58 -5 -20 -31 -59 -56 -86 -33 -34 -51 -65 -62 -103 -8 -29 -12
-56 -8 -60 3 -3 24 13 45 37 34 38 45 44 83 46 58 2 53 0 76 38 15 26 32 38
61 46 27 7 49 22 67 45 20 27 34 35 58 35 17 0 49 11 72 24 22 12 60 26 85 30
24 4 53 15 64 26 31 28 119 50 250 61 127 11 153 21 121 45 -30 21 -5 39 52
38 26 -1 61 -2 77 -2 17 -1 135 1 263 4 l233 5 -3 -265 c-2 -145 -6 -267 -9
-270 -15 -16 -55 14 -68 50 -7 22 -21 47 -29 57 -13 15 -14 22 -4 37 15 25 5
50 -20 50 -14 0 -18 5 -15 15 9 23 -10 27 -42 10 -17 -8 -46 -15 -66 -15 -19
0 -35 -4 -35 -10 0 -6 -40 -10 -100 -10 -60 0 -100 4 -100 10 0 13 -37 13 -45
0 -3 -5 -22 -10 -41 -10 -27 0 -34 -4 -34 -20 0 -15 -7 -20 -26 -20 -14 0 -37
-9 -51 -20 -20 -15 -41 -20 -89 -20 -61 0 -63 1 -66 28 -3 24 -7 27 -38 27
-34 0 -35 -1 -38 -45 -4 -56 -13 -66 -44 -46 -13 9 -33 13 -46 9 -22 -5 -31
-23 -12 -23 11 0 14 -30 3 -31 -5 0 -27 -3 -49 -5 -36 -4 -42 -2 -49 18 -4 13
-8 30 -9 38 -2 25 -26 60 -41 60 -8 0 -29 -9 -47 -20 -18 -11 -45 -20 -59 -20
-14 0 -34 -7 -45 -15 -10 -8 -29 -15 -40 -15 -12 0 -24 -6 -27 -14 -6 -16 -81
-56 -106 -56 -20 0 -71 -43 -71 -59 0 -6 -19 -31 -42 -56 -23 -25 -43 -52 -44
-61 -4 -25 -24 -42 -44 -37 -11 3 -37 -2 -57 -10 -45 -18 -94 -17 -116 1 -13
11 -18 11 -28 -6 -7 -12 -19 -17 -30 -15 -11 3 -21 -1 -25 -11 -7 -18 -39 -22
-49 -6 -11 17 -25 11 -25 -10 0 -11 7 -23 15 -26 17 -7 11 -43 -9 -56 -23 -15
-71 -8 -84 12 -16 25 -29 25 -37 0 -9 -29 15 -86 42 -101 35 -19 28 -37 -14
-41 -27 -2 -45 3 -60 16 -20 17 -27 18 -50 7 -15 -7 -33 -21 -41 -32 -13 -19
-15 -19 -33 -3 -18 16 -17 18 41 46 48 24 60 35 60 53 0 18 -6 24 -27 27 -17
2 -32 12 -40 28 -16 31 -34 28 -93 -15 -25 -18 -63 -38 -86 -44 -44 -12 -69
-35 -98 -93 -11 -21 -23 -38 -27 -38 -5 0 -17 -9 -27 -20 -27 -29 -80 -10 -89
31 -5 27 -33 42 -33 18 0 -14 -49 -3 -71 17 -9 8 -33 53 -54 100 -53 119 -71
87 -37 -66 9 -39 8 -48 -8 -64 -18 -19 -19 -18 -26 20 -9 50 -20 71 -44 84
-36 19 -84 -34 -50 -55 6 -3 10 -22 10 -41 0 -41 -25 -47 -40 -9 -6 16 -17 25
-31 25 -18 0 -20 -2 -9 -15 15 -18 5 -31 -25 -37 -11 -2 -21 -13 -23 -25 -2
-12 -12 -25 -24 -29 -11 -3 -35 -16 -54 -29 -19 -13 -57 -28 -86 -35 -29 -7
-67 -20 -83 -29 -17 -10 -52 -21 -78 -24 -26 -4 -64 -15 -85 -26 -52 -26 -75
-32 -90 -22 -10 6 11 32 75 95 48 48 100 94 116 102 15 8 27 22 27 32 0 9 27
37 61 61 65 47 71 69 26 84 -34 11 -51 -1 -79 -57 -24 -49 -57 -86 -74 -86 -8
0 -35 -22 -61 -49 -192 -198 -187 -195 -261 -160 -26 12 -54 30 -62 40 -13 16
-21 17 -50 9 -19 -5 -47 -10 -62 -10 -14 0 -28 -5 -30 -12 -3 -8 -21 -12 -47
-11 -29 1 -44 -3 -48 -13 -15 -41 -63 5 -63 61 0 36 -17 31 -71 -20 -26 -25
-57 -45 -68 -45 -11 0 -32 -10 -48 -23 -15 -12 -47 -35 -70 -51 -23 -15 -46
-41 -52 -57 -9 -28 -7 -34 30 -74 51 -55 49 -79 -6 -83 -22 -2 -44 -8 -50 -13
-5 -5 -23 -9 -40 -9 -17 0 -36 -5 -43 -12 -9 -9 -12 -7 -12 9 0 14 -13 29 -37
43 -41 24 -82 22 -122 -6 l-23 -17 38 -13 c24 -8 40 -10 42 -4 5 15 32 12 38
-3 3 -8 0 -26 -6 -41 -8 -23 -7 -34 10 -61 19 -32 47 -51 58 -41 2 3 -3 17
-12 31 -14 21 -15 29 -5 41 6 8 18 14 25 14 19 0 62 -71 60 -100 -1 -22 3 -25
32 -22 17 1 32 -2 32 -8 0 -5 -8 -10 -17 -10 -28 0 56 -79 95 -90 19 -5 39
-15 46 -23 6 -8 49 -31 96 -52 47 -20 100 -44 118 -53 31 -15 34 -14 53 5 18
17 27 19 72 11 29 -4 62 -6 73 -3 27 6 41 -11 46 -55 4 -42 33 -50 34 -10 1
48 3 50 44 50 22 0 40 -4 40 -8 0 -22 43 -52 74 -52 35 0 59 -18 54 -41 -2 -9
9 -15 32 -17 23 -2 42 -12 56 -28 18 -22 22 -23 34 -10 7 9 8 16 3 16 -6 0
-20 9 -33 20 l-22 19 38 -1 c22 -1 42 -6 46 -12 5 -7 13 -3 23 12 31 44 66 19
68 -50 2 -53 26 -62 64 -24 18 18 36 26 60 26 33 0 34 1 28 30 -8 36 6 39 37
10 22 -20 22 -20 40 0 18 20 44 28 34 11 -3 -4 3 -16 14 -26 17 -15 40 -71 40
-97 0 -29 -69 25 -83 65 -6 17 -37 25 -37 9 0 -4 11 -24 25 -44 41 -60 31 -85
-20 -52 -20 13 -28 14 -40 4 -23 -19 -18 -33 20 -59 19 -13 35 -26 35 -30 0
-3 -19 -12 -42 -19 -139 -43 -268 -119 -268 -157 0 -7 -6 -15 -12 -18 -7 -2
-10 -8 -6 -11 3 -4 15 1 27 13 11 11 38 25 59 31 22 5 45 17 52 25 21 26 53
17 77 -20 l23 -35 -31 -15 c-29 -15 -31 -15 -36 3 -5 20 -6 20 -68 -2 -35 -12
-70 -28 -79 -35 -13 -11 -20 -11 -41 3 -14 9 -25 21 -25 27 0 15 41 70 69 93
14 11 36 33 50 49 14 16 47 40 73 55 58 33 61 46 8 39 -47 -6 -60 7 -31 31 32
26 13 42 -57 47 -58 5 -92 -8 -58 -21 25 -10 19 -24 -10 -24 -14 0 -23 4 -19
10 3 6 -4 10 -18 10 -20 0 -23 4 -20 24 3 14 13 27 22 29 14 4 14 5 -1 6 -10
0 -18 6 -18 11 0 6 -13 10 -29 10 -18 0 -41 10 -57 25 -15 14 -37 25 -49 25
-15 0 -25 8 -28 21 -4 15 -12 20 -29 17 -19 -2 -24 -10 -26 -41 -3 -29 -9 -41
-27 -49 -14 -6 -27 -19 -30 -29 -8 -26 -34 -44 -46 -32 -6 6 0 18 16 33 32 30
32 52 -1 85 -40 40 -53 32 -94 -56 -6 -14 -10 -45 -8 -69 3 -40 1 -44 -22 -50
-14 -4 -30 -3 -37 3 -18 13 -6 91 24 155 23 51 24 55 7 73 -22 25 -45 24 -51
-1 -6 -24 -25 -26 -56 -6 -12 8 -49 16 -82 18 -54 3 -60 1 -60 -17 0 -19 -6
-20 -115 -16 -76 2 -122 8 -135 17 -11 8 -33 14 -50 14 l-30 1 24 13 c13 7 33
11 45 9 14 -3 11 0 -9 12 -36 20 -66 13 -103 -23 -23 -22 -31 -25 -40 -15 -7
7 -12 16 -12 21 0 5 -7 15 -15 22 -8 7 -12 17 -9 22 4 6 10 6 17 -1 16 -16 52
-14 67 4 7 8 16 12 21 9 14 -8 29 5 23 20 -3 8 -39 31 -80 51 -41 21 -77 41
-80 46 -3 5 -12 9 -21 9 -9 0 -26 11 -39 25 -13 14 -27 25 -32 25 -5 0 -12
-22 -16 -48 -8 -59 -30 -95 -46 -72 -5 8 -10 23 -10 33 0 10 -7 31 -15 47 -9
16 -18 50 -22 75 -9 69 -82 122 -131 96 -30 -16 -107 -15 -94 2 19 23 24 73 8
86 -17 14 -94 -5 -161 -39 -22 -11 -49 -20 -61 -20 -12 0 -27 -6 -33 -13 -6
-8 -34 -19 -63 -26 -29 -6 -66 -20 -83 -31 -16 -11 -40 -20 -52 -20 -19 0 -25
-10 -39 -57 -14 -50 -15 -92 -2 -155 2 -7 -4 -12 -12 -11 -15 3 -26 -29 -51
-142 -10 -51 -11 -125 -1 -125 4 0 19 18 34 40 21 33 25 49 21 88 -4 44 -3 46
11 28 9 -11 16 -24 16 -29 0 -5 19 -7 43 -3 32 5 49 2 75 -14 43 -26 58 -25
78 5 16 24 15 29 -11 100 -32 89 -26 119 18 85 16 -13 27 -31 27 -45 0 -13 4
-26 9 -29 4 -3 14 -33 20 -67 l13 -62 63 7 c55 6 65 4 74 -12 6 -11 6 -24 -1
-36 -9 -15 -18 -17 -63 -11 l-53 6 -18 -36 c-16 -34 -16 -37 2 -56 18 -20 18
-21 -3 -39 -20 -16 -21 -19 -7 -31 13 -11 23 -9 60 12 57 31 75 50 72 79 -2
12 4 27 14 33 26 17 70 -20 87 -74 7 -24 18 -52 22 -61 13 -26 24 -49 43 -89
10 -21 16 -52 14 -75 -2 -32 -8 -42 -34 -54 -28 -14 -30 -18 -22 -43 8 -21 5
-34 -9 -59 -26 -45 -43 -47 -43 -6 0 43 -6 49 -36 38 -30 -12 -45 11 -33 52 8
31 -4 77 -23 89 -6 4 -19 -2 -28 -14 l-17 -21 -14 22 c-8 12 -18 22 -24 22
-12 0 -49 -35 -70 -65 -13 -19 -15 -19 -43 -2 -38 22 -40 22 -44 -5 -3 -25
-24 -27 -65 -6 -34 17 -35 36 -3 65 17 14 30 32 30 38 0 7 7 18 15 25 18 15
20 53 3 48 -7 -3 -17 -14 -22 -25 -11 -24 -88 -78 -134 -94 -27 -9 -35 -9 -45
4 -7 9 -21 17 -31 19 -15 2 -22 -5 -28 -32 -4 -19 -5 -45 -3 -57 3 -12 1 -25
-5 -28 -15 -9 -12 -41 5 -55 19 -16 19 -30 1 -30 -7 0 -19 -7 -26 -15 -17 -21
5 -66 29 -58 12 3 11 1 -3 -11 -23 -18 -57 -21 -72 -6 -8 8 -19 7 -37 -1 -30
-14 -33 -25 -12 -53 20 -26 19 -33 -6 -39 -21 -6 -22 -16 -5 -58 9 -20 -52
-98 -76 -98 -20 -1 -24 -16 -8 -26 13 -8 13 -42 1 -50 -23 -14 -142 -15 -168
-1 -27 14 -27 14 28 22 30 5 62 8 72 6 22 -2 22 11 -2 32 -16 14 -26 15 -62 7
-24 -6 -54 -12 -67 -13 -12 -2 -23 -7 -23 -13 -1 -5 -21 -18 -46 -28 -42 -16
-50 -16 -98 -2 -29 8 -58 22 -65 30 -12 14 -10 56 5 102 6 19 2 23 -31 29 -23
4 -44 2 -55 -5 -26 -16 -59 -14 -66 5 -10 27 15 39 98 45 67 5 82 9 95 28 13
17 22 21 44 16 15 -3 30 -3 33 2 3 4 -9 35 -25 68 -16 33 -43 94 -60 135 -17
41 -35 80 -40 87 -10 13 -1 80 13 89 5 3 5 14 -1 25 -7 13 -21 19 -45 19 -40
0 -62 26 -71 82 -4 23 -18 48 -39 68 -28 28 -35 30 -60 20 -16 -6 -39 -9 -52
-5 -13 3 -37 -3 -58 -15 -19 -11 -54 -23 -78 -27 -58 -9 -103 -29 -111 -49 -7
-18 18 -64 34 -64 6 0 10 -4 10 -10 0 -5 -10 -10 -22 -10 -42 1 -57 23 -68
101 -13 94 -25 119 -60 119 -26 0 -27 -1 -20 -42 4 -24 20 -70 37 -103 17 -33
34 -74 37 -92 11 -51 -11 -48 -37 4 -13 26 -32 62 -41 78 -9 17 -16 37 -16 46
0 8 -5 20 -12 27 -9 9 -9 17 2 36 18 34 7 56 -29 56 -53 0 -62 -8 -55 -51 9
-52 -13 -60 -66 -25 -40 27 -48 40 -30 51 22 14 7 33 -37 48 -58 19 -81 8 -85
-42 -3 -30 -9 -39 -45 -59 -41 -22 -43 -26 -43 -68 0 -37 4 -46 23 -53 29 -11
44 -29 52 -64 9 -35 -12 -37 -25 -2 -10 26 -45 46 -67 38 -6 -2 -14 -14 -18
-26 l-6 -22 -9 23 c-5 12 -6 30 -3 39 5 12 2 15 -9 11 -20 -8 -81 13 -108 37
-21 19 -40 73 -40 118 0 19 -5 27 -18 27 -10 0 -21 -3 -25 -6 -9 -9 14 -65 24
-58 5 3 9 -7 10 -23 0 -15 4 -37 8 -48 10 -23 -4 -55 -22 -55 -26 0 -57 40
-57 75 0 24 -8 41 -30 62 l-30 28 32 27 33 27 -26 1 c-14 0 -34 9 -45 21 -19
22 -76 49 -101 49 -10 0 -14 -11 -13 -37 1 -21 2 -49 1 -62 -1 -23 -1 -23 -35
7 -24 21 -42 29 -55 25 -17 -4 -21 0 -23 23 -1 16 -2 36 -4 44 -1 8 -3 22 -3
30 -1 8 -8 0 -16 -17 -8 -18 -21 -33 -30 -33 -9 0 -18 -7 -21 -15 -9 -21 -18
-19 -54 15 -31 29 -60 39 -60 21 0 -5 -13 -14 -30 -21 -16 -7 -34 -18 -41 -26
-17 -21 -2 -63 26 -74 15 -6 27 -20 31 -37 4 -15 15 -37 24 -48 10 -11 21 -31
25 -45 7 -26 28 -78 48 -118 10 -21 8 -27 -19 -50 -25 -22 -30 -32 -25 -52 5
-20 14 -26 41 -28 80 -8 64 -49 -21 -54 -24 -1 -56 -9 -72 -18 -27 -15 -28
-14 -62 25 -50 57 -127 219 -136 285 -6 45 -14 60 -41 83 -36 30 -72 35 -95
11 -15 -15 -13 -20 30 -59 26 -24 47 -51 47 -61 0 -22 60 -193 84 -241 29 -56
9 -139 -39 -161 -21 -10 -23 -7 -28 26 -7 55 -45 148 -73 181 -13 16 -24 36
-24 44 0 30 -30 86 -51 92 -30 10 -47 -10 -27 -32 9 -10 19 -29 22 -43 8 -29
57 -141 95 -218 l26 -53 -25 -19 c-14 -11 -37 -20 -52 -20 -23 0 -28 4 -28 24
0 13 -13 50 -30 81 -16 31 -30 71 -30 89 0 52 -11 74 -41 86 -34 14 -102 8
-125 -11 -14 -12 -14 -14 2 -26 10 -7 30 -13 44 -13 35 0 50 -17 43 -51 -3
-18 -1 -29 6 -29 16 0 51 -60 51 -87 0 -12 -11 -32 -24 -45 -13 -13 -26 -32
-28 -43 -4 -25 -50 -47 -110 -53 -40 -4 -49 -1 -54 14 -11 31 -44 106 -65 147
-10 21 -19 49 -19 62 0 29 2 29 -43 10 -46 -19 -51 -28 -27 -50 39 -35 13 -65
-54 -65 -41 0 -41 0 -20 -56 15 -38 19 -42 51 -42 25 0 43 -8 61 -25 29 -29
26 -35 -23 -62 l-37 -19 -18 24 -19 25 -10 -28 c-10 -26 -11 -27 -29 -9 -10
10 -26 40 -36 67 -10 28 -29 70 -41 95 -13 25 -26 57 -29 73 -22 102 -26 107
-72 100 -20 -3 -40 -1 -48 6 -8 7 -25 12 -38 11 -37 -3 -41 -1 -28 15 10 12
10 15 -4 15 -19 0 -31 41 -21 78 13 52 11 97 -5 97 -8 0 -21 4 -29 9 -9 6 -17
3 -23 -8 -12 -22 -45 -20 -106 5 -49 20 -51 23 -48 56 2 22 11 40 25 50 48 33
43 101 -10 129 -29 15 -34 26 -30 75 4 54 -84 73 -132 29 -17 -16 -17 -19 -2
-34 25 -25 12 -43 -44 -63 -28 -10 -53 -23 -55 -30 -6 -16 15 -57 41 -80 24
-22 73 -234 73 -320 0 -28 -3 -33 -25 -33 -28 0 -44 27 -65 105 -7 28 -17 54
-21 60 -5 5 -9 26 -9 46 0 38 -11 52 -42 54 -16 1 -18 -8 -18 -67 0 -38 4 -67
8 -64 5 3 14 -25 21 -62 7 -37 17 -81 23 -99 9 -26 8 -36 -6 -57 -23 -36 -34
-33 -39 12 -2 20 -4 -833 -5 -1895 l-2 -1933 5000 0 5000 0 0 3745 0 3745
-5000 0 -5000 0 0 -467z m9775 -823 c-3 -5 -10 -10 -16 -10 -5 0 -9 5 -9 10 0
6 7 10 16 10 8 0 12 -4 9 -10z m72 -52 c-3 -7 -5 -2 -5 12 0 14 2 19 5 13 2
-7 2 -19 0 -25z m-1758 -440 c1 -4 -5 -5 -13 -2 -8 3 -12 13 -8 27 5 20 6 20
13 1 4 -10 8 -22 8 -26z m685 33 c8 -12 -21 -34 -33 -26 -6 3 -21 -3 -33 -14
-13 -13 -35 -21 -55 -21 -21 0 -36 -6 -39 -15 -4 -8 -11 -15 -17 -15 -6 0 -29
-9 -51 -19 -66 -31 -177 -62 -223 -62 -24 -1 -43 -4 -43 -9 0 -17 -32 -40 -55
-40 -28 0 -42 17 -26 33 6 6 11 19 11 29 0 12 11 19 38 23 20 3 45 10 54 16
10 5 29 9 43 9 14 0 39 7 56 15 16 9 44 15 62 14 19 -2 52 8 82 24 27 15 62
27 76 27 15 0 32 6 38 14 6 7 22 11 35 9 13 -3 32 0 43 6 22 13 30 13 37 2z
m-565 -90 c0 -3 -4 -14 -7 -23 -7 -16 -10 -16 -35 6 l-28 24 23 4 c26 4 48 -1
47 -11z m-159 -14 c0 -16 -65 -67 -84 -67 -24 0 -19 24 12 52 40 38 72 44 72
15z m1530 -117 c0 -26 -38 -47 -46 -25 -9 23 3 45 26 45 13 0 20 -7 20 -20z
m-1923 -6 c3 -8 12 -13 19 -10 16 6 19 -10 4 -19 -11 -7 -60 23 -60 36 0 15
30 10 37 -7z m-605 -31 c2 -5 15 -19 30 -32 l28 -24 11 31 c10 29 15 32 50 32
50 0 61 -21 29 -55 -17 -18 -30 -23 -47 -19 -17 5 -31 0 -48 -16 -13 -12 -28
-19 -34 -16 -9 6 -51 90 -51 102 0 7 28 4 32 -3z m208 -14 c0 -5 -4 -9 -10 -9
-5 0 -10 7 -10 16 0 8 5 12 10 9 6 -3 10 -10 10 -16z m2478 -1 c6 -8 6 -22 1
-35 -10 -27 -50 -31 -69 -8 -9 11 -22 14 -42 10 -24 -6 -28 -4 -28 15 0 19 4
22 28 17 15 -2 36 -1 47 3 30 13 51 12 63 -2z m-518 -2 c0 -3 -4 -8 -10 -11
-5 -3 -10 -1 -10 4 0 6 5 11 10 11 6 0 10 -2 10 -4z m-2229 -70 c20 -63 36
-89 50 -81 4 3 20 3 34 -1 17 -4 25 -13 25 -28 0 -35 -14 -48 -44 -40 -20 5
-33 1 -51 -16 -19 -18 -27 -20 -45 -10 -16 9 -19 16 -13 33 11 31 8 103 -8
149 -11 34 -11 41 2 49 23 14 31 6 50 -55z m2189 44 c0 -5 -9 -10 -20 -10 -11
0 -20 5 -20 10 0 6 9 10 20 10 11 0 20 -4 20 -10z m118 -47 c-4 -20 -35 -30
-50 -15 -15 15 0 32 28 32 19 0 25 -5 22 -17z m-308 -18 c7 -8 25 -15 41 -15
15 0 35 -8 44 -17 16 -16 16 -17 -1 -30 -25 -18 -26 -18 -80 32 -29 27 -42 45
-32 45 8 0 21 -7 28 -15z m409 -94 c8 -14 7 -22 -4 -31 -19 -16 -45 -6 -45 18
0 36 33 45 49 13z m-2523 -32 c26 1 41 -15 46 -49 2 -17 10 -26 24 -28 l22 -3
-23 -25 c-14 -15 -33 -24 -53 -24 -26 0 -33 5 -38 28 -9 35 -32 62 -56 62 -26
0 -34 -27 -14 -49 22 -24 21 -63 -1 -59 -10 2 -22 13 -28 26 -11 26 -27 28
-46 6 -8 -10 -22 -14 -41 -10 -18 3 -33 0 -43 -11 -9 -9 -35 -18 -57 -20 -32
-3 -43 0 -55 16 -13 19 -16 20 -48 7 -44 -19 -53 -4 -18 28 22 21 34 25 59 20
26 -5 32 -2 37 15 3 12 13 24 24 27 10 4 26 16 36 28 17 21 17 21 32 2 8 -11
15 -26 15 -33 0 -18 20 -16 43 5 27 25 108 52 137 46 14 -3 35 -5 46 -5z
m2109 -76 c-4 -19 -11 -24 -32 -21 -14 2 -31 11 -37 21 -9 15 -5 23 29 51 l40
34 3 -30 c2 -17 1 -42 -3 -55z m-2850 42 c0 -27 -3 -30 -30 -27 -45 5 -54 20
-26 43 34 27 56 21 56 -16z m2355 -6 c0 -35 3 -40 18 -34 33 14 47 10 50 -14
3 -20 -11 -40 -28 -41 -3 0 -22 20 -42 44 -26 31 -35 50 -31 65 10 38 33 25
33 -20z m-2512 -45 c2 -28 2 -28 -13 -10 -18 24 -20 49 -2 44 6 -3 13 -18 15
-34z m267 16 c3 -5 2 -10 -3 -10 -6 0 -8 -8 -5 -19 6 -25 -10 -34 -32 -17 -14
10 -16 16 -6 34 12 23 35 29 46 12z m2667 -85 c2 -14 -3 -21 -20 -23 -26 -4
-37 17 -27 55 6 26 7 26 25 7 10 -10 20 -28 22 -39z m-2498 -21 c8 -21 1 -31
-30 -38 -35 -9 -49 5 -35 33 14 25 56 28 65 5z m526 2 c0 -18 -15 -28 -47 -32
-28 -3 -29 0 -1 26 25 23 48 26 48 6z m1137 8 c-3 -3 -12 -4 -19 -1 -8 3 -5 6
6 6 11 1 17 -2 13 -5z m-1400 -29 c-4 -8 -11 -15 -17 -15 -14 0 -13 27 3 33
16 6 21 1 14 -18z m2453 16 c0 -12 -29 -23 -41 -15 -5 3 -7 10 -4 15 8 12 45
12 45 0z m-2506 -7 c26 -10 19 -24 -20 -40 -33 -14 -38 -14 -53 0 -14 15 -14
16 1 16 8 0 21 7 28 15 14 17 21 18 44 9z m-318 -35 c3 -6 2 -15 -3 -20 -13
-13 -43 -1 -43 17 0 16 36 19 46 3z m3624 -9 c0 -5 -4 -10 -10 -10 -5 0 -10 5
-10 10 0 6 5 10 10 10 6 0 10 -4 10 -10z m-1020 -20 c0 -11 -7 -20 -15 -20 -8
0 -15 2 -15 4 0 2 -3 11 -6 20 -4 12 0 16 15 16 14 0 21 -6 21 -20z m1070 -7
c-1 -27 -1 -27 -15 -9 -19 25 -19 36 0 36 10 0 15 -10 15 -27z m-3220 -9 c0
-14 -21 -19 -33 -7 -9 9 13 34 24 27 5 -3 9 -12 9 -20z m810 9 c0 -13 -16 -23
-56 -36 -30 -9 -60 -15 -65 -12 -19 12 -8 25 34 36 23 6 51 15 62 19 11 5 21
9 23 9 1 1 2 -7 2 -16z m-1353 -19 c-9 -9 -28 6 -21 18 4 6 10 6 17 -1 6 -6 8
-13 4 -17z m3098 15 c10 -15 -1 -23 -20 -15 -9 3 -13 10 -10 16 8 13 22 13 30
-1z m-3705 -54 c0 -5 -5 -3 -10 5 -5 8 -10 20 -10 25 0 6 5 3 10 -5 5 -8 10
-19 10 -25z m-76 -1 c20 -19 20 -38 1 -54 -20 -16 -45 3 -45 35 0 37 18 45 44
19z m2188 -1 c21 -25 31 -60 18 -68 -15 -9 -12 -47 5 -72 11 -16 12 -22 3 -25
-10 -4 -10 -10 -1 -31 11 -23 9 -28 -12 -44 -24 -18 -24 -19 -9 -63 17 -48 11
-114 -9 -107 -7 3 -11 10 -9 16 1 6 -10 11 -24 11 -41 0 -64 18 -64 49 0 22
-6 30 -24 35 -13 3 -36 22 -50 41 -22 29 -24 36 -12 41 8 3 25 -1 38 -10 36
-25 67 -21 74 12 3 15 10 36 15 47 5 11 11 34 12 50 2 30 2 30 -45 27 -40 -3
-48 -1 -48 14 0 25 30 54 56 54 14 0 25 8 29 20 8 25 37 26 57 3z m-927 -4 c4
-6 28 -9 54 -7 l46 3 0 -34 c0 -23 -6 -37 -20 -45 -11 -6 -23 -15 -26 -20 -9
-12 -22 12 -13 25 4 7 1 10 -7 7 -8 -3 -16 -17 -19 -33 -3 -16 -10 -30 -17
-32 -25 -9 -58 119 -36 140 10 11 31 8 38 -4z m-1157 -44 c16 -35 15 -55 -3
-55 -8 0 -17 12 -21 28 -3 15 -7 33 -10 40 -7 23 23 12 34 -13z m4342 0 c0
-22 -2 -24 -19 -13 -15 9 -17 15 -9 25 16 20 28 15 28 -12z m-4080 -5 c0 -5
-4 -10 -10 -10 -5 0 -10 5 -10 10 0 6 5 10 10 10 6 0 10 -4 10 -10z m3520 -19
c16 -30 12 -41 -14 -41 -16 0 -27 7 -31 20 -12 39 25 57 45 21z m-1523 -11
c19 -17 20 -24 12 -61 -6 -23 -9 -63 -8 -88 1 -25 -1 -58 -5 -72 -5 -17 -3
-29 7 -38 8 -6 13 -20 10 -30 -3 -11 0 -29 7 -41 8 -16 9 -25 0 -35 -10 -12
-17 -11 -43 6 -18 10 -40 19 -49 19 -21 0 -22 4 -7 32 14 25 3 68 -16 68 -9 0
-15 10 -15 25 0 14 5 25 10 25 6 0 10 -4 10 -10 0 -5 6 -10 14 -10 14 0 42
133 31 150 -3 5 -19 1 -35 -8 -16 -9 -32 -13 -37 -9 -10 11 9 40 37 54 13 6
27 19 32 27 12 21 20 20 45 -4z m-397 3 c0 -4 -9 -17 -21 -29 -23 -25 -18 -44
12 -44 30 0 24 -37 -10 -55 -30 -15 -47 -47 -36 -65 10 -16 -37 -50 -52 -38
-9 7 -15 3 -23 -17 -13 -34 5 -67 49 -90 42 -21 78 -6 50 22 -23 23 1 32 64
26 69 -6 72 -7 62 -22 -3 -6 -24 -11 -46 -11 -22 0 -38 -4 -34 -9 3 -5 1 -12
-5 -16 -5 -3 -10 -18 -10 -32 0 -23 3 -24 28 -17 15 4 41 8 57 9 43 3 140 -18
139 -30 -2 -16 -71 -23 -119 -13 -44 9 -94 -5 -110 -33 -11 -16 3 -23 19 -10
16 13 156 5 156 -9 0 -5 -48 -11 -107 -14 -111 -7 -138 -14 -138 -36 0 -27 32
-35 93 -22 79 16 143 15 170 -4 12 -8 22 -19 22 -23 0 -5 -29 -15 -65 -22 -90
-18 -160 -57 -160 -89 0 -33 39 -39 69 -11 12 12 33 21 47 20 13 0 43 3 67 7
36 6 46 3 66 -15 21 -20 23 -30 20 -87 -1 -35 -6 -70 -11 -76 -4 -7 -10 -53
-13 -103 l-5 -90 -15 45 c-12 36 -19 44 -35 42 -83 -13 -108 -21 -120 -39 -20
-29 -86 -36 -93 -11 -6 25 -52 23 -86 -3 -26 -21 -27 -21 -48 -3 -24 21 -25
31 9 -81 8 -27 17 -63 20 -80 3 -16 13 -48 23 -70 22 -48 34 -115 22 -115 -5
0 -14 19 -21 43 -7 23 -17 49 -22 57 -17 28 -27 55 -59 157 -24 75 -37 102
-51 106 -21 6 -26 27 -6 27 7 0 18 -5 24 -11 6 -6 21 -9 33 -7 20 3 16 9 -39
67 -33 35 -61 69 -61 77 0 15 47 54 67 54 7 0 31 -9 53 -20 32 -16 44 -18 70
-9 28 10 30 13 16 28 -9 10 -16 28 -16 42 0 13 -3 34 -6 47 -6 23 -10 23 -88
19 -44 -3 -97 -8 -116 -12 l-35 -6 28 25 c15 14 46 30 70 36 127 33 145 46
133 93 -4 18 -13 27 -26 27 -25 0 -25 6 0 37 26 34 25 40 -7 46 -114 23 -127
40 -69 93 20 18 36 42 36 53 0 25 -50 141 -61 141 -4 0 -11 -5 -15 -11 -5 -8
-9 -8 -14 2 -8 17 2 144 13 155 11 11 57 -17 73 -46 7 -14 24 -38 37 -53 l24
-29 28 26 c21 19 26 31 21 50 -5 20 0 28 27 44 33 21 57 27 57 15z m530 -8 c0
-8 -7 -15 -15 -15 -8 0 -15 7 -15 15 0 8 7 15 15 15 8 0 15 -7 15 -15z m755 5
c11 -17 -5 -32 -21 -19 -7 6 -11 15 -8 20 7 12 21 11 29 -1z m-529 -11 c10
-17 -13 -36 -27 -22 -12 12 -4 33 11 33 5 0 12 -5 16 -11z m435 -4 c0 -5 -14
-13 -31 -16 -33 -7 -45 16 -12 24 25 7 43 4 43 -8z m-2132 -31 c10 -9 -21 -28
-46 -29 -23 0 -29 -5 -33 -29 -8 -44 -30 -45 -30 -3 0 20 -3 43 -7 53 -5 14
-2 16 20 10 15 -3 29 -1 32 5 6 10 53 5 64 -7z m3171 -4 c0 -5 -7 -10 -16 -10
-8 0 -12 5 -9 10 3 6 10 10 16 10 5 0 9 -4 9 -10z m-4905 -28 c40 -8 52 -8 61
4 13 16 34 19 34 4 0 -5 -4 -10 -9 -10 -5 0 -18 -17 -28 -37 -22 -46 -56 -55
-74 -22 -11 22 -12 22 -25 4 -10 -13 -12 -35 -7 -78 5 -49 4 -59 -8 -55 -8 2
-19 26 -26 53 -7 27 -21 58 -32 68 -18 19 -25 19 -91 8 -87 -14 -120 -7 -120
24 0 29 18 37 100 46 77 8 156 5 225 -9z m1793 1 c-4 -22 -22 -20 -26 1 -2 10
3 16 13 16 10 0 15 -7 13 -17z m2071 -17 c15 -18 -8 -37 -37 -29 -27 7 -27 12
-4 29 22 17 27 17 41 0z m-1580 -24 c37 -18 60 -46 48 -58 -4 -5 -21 0 -36 9
-16 9 -36 17 -44 17 -9 0 -29 11 -44 25 l-28 24 35 0 c19 0 50 -8 69 -17z
m2786 6 c21 -9 36 -38 20 -38 -12 0 -55 33 -55 41 0 12 4 11 35 -3z m-3025
-23 c12 -11 24 -13 41 -7 30 12 69 -5 69 -29 0 -23 -34 -33 -59 -17 -17 10
-23 9 -39 -5 -31 -28 -60 -21 -79 19 -15 31 -15 36 -3 44 22 14 51 12 70 -5z
m1740 6 c0 -5 -17 -15 -37 -21 -21 -7 -49 -19 -61 -27 -27 -17 -35 -13 -26 11
3 9 14 16 24 16 10 0 20 7 24 15 6 16 76 22 76 6z m1175 -21 c0 -18 -6 -26
-23 -28 -13 -2 -25 3 -28 12 -10 26 4 48 28 44 17 -2 23 -10 23 -28z m-5315
-11 c0 -20 -25 -37 -37 -25 -3 3 -1 17 5 32 13 28 32 24 32 -7z m2203 -9 c-3
-12 -8 -19 -11 -16 -5 6 5 36 12 36 2 0 2 -9 -1 -20z m451 -56 c4 -10 -3 -14
-24 -14 -32 0 -50 18 -30 30 17 10 47 1 54 -16z m-384 -23 c0 -21 -26 -36 -36
-20 -9 15 3 39 21 39 8 0 15 -9 15 -19z m-1350 -12 c0 -5 -11 -9 -25 -9 -24 0
-32 10 -19 22 8 8 44 -3 44 -13z m1430 6 c26 -13 60 -50 60 -65 0 -3 -26 -5
-57 -5 -53 0 -58 2 -67 27 -7 19 -6 31 4 42 16 20 24 20 60 1z m153 -33 c21
-23 33 -77 18 -86 -15 -10 -61 23 -61 45 0 10 -4 20 -10 24 -14 9 0 35 20 35
9 0 24 -8 33 -18z m2668 -32 c30 -17 23 -38 -16 -46 -44 -8 -52 -1 -37 31 13
27 23 30 53 15z m-5181 -15 c6 -8 8 -20 4 -26 -5 -9 -11 -7 -21 6 -23 33 -9
51 17 20z m2048 -16 c-2 -6 -8 -10 -13 -10 -5 0 -11 4 -13 10 -2 6 4 11 13 11
9 0 15 -5 13 -11z m-1188 -14 c15 -18 7 -29 -26 -39 -25 -8 -71 25 -60 42 10
17 71 15 86 -3z m4240 -10 c7 -9 11 -18 8 -20 -3 -3 -38 -12 -78 -21 -46 -9
-91 -26 -119 -45 -37 -26 -48 -29 -68 -20 -26 12 -31 36 -8 45 8 3 15 12 15
20 0 12 10 14 48 9 43 -5 52 -2 77 21 33 30 104 37 125 11z m-4033 -32 c-2
-20 -8 -28 -22 -28 -40 0 -25 38 22 54 1 1 1 -11 0 -26z m-107 3 c0 -8 7 -17
16 -20 8 -3 12 -10 9 -16 -15 -25 -73 6 -62 34 8 20 37 22 37 2z m228 -21 c5
-5 -42 -95 -50 -95 -4 0 -10 12 -13 28 -4 15 -10 35 -16 44 -16 31 -10 36 34
31 23 -3 43 -7 45 -8z m82 -15 c0 -13 -20 -13 -40 0 -12 8 -9 10 13 10 15 0
27 -4 27 -10z m1266 -27 c-5 -12 -10 -13 -18 -5 -8 8 -8 15 3 28 15 18 25 4
15 -23z m-1036 12 c0 -8 -4 -15 -9 -15 -13 0 -22 16 -14 24 11 11 23 6 23 -9z
m4020 -41 c0 -34 -4 -53 -10 -49 -16 10 -10 105 6 105 2 0 4 -25 4 -56z
m-3652 11 c-3 -3 -9 2 -12 12 -6 14 -5 15 5 6 7 -7 10 -15 7 -18z m1392 -15
c0 -5 -2 -10 -4 -10 -3 0 -8 5 -11 10 -3 6 -1 10 4 10 6 0 11 -4 11 -10z
m-1489 -44 c4 -16 16 -37 25 -47 14 -16 15 -24 6 -44 -14 -30 -37 -32 -54 -5
-7 11 -18 20 -24 20 -13 0 -24 22 -24 48 0 19 40 64 54 59 5 -2 13 -16 17 -31z
m69 9 c0 -29 -12 -32 -31 -9 -10 13 -10 17 2 25 23 14 29 11 29 -16z m3410 16
c0 -5 -8 -11 -17 -15 -10 -3 -26 -11 -35 -18 -21 -15 -44 2 -35 26 7 17 87 24
87 7z m-9394 -107 c-3 -8 -12 -14 -21 -14 -21 0 -20 54 3 76 16 17 17 16 20
-15 2 -18 1 -39 -2 -47z m6595 41 c0 -19 -29 -16 -34 4 -4 16 -1 18 15 12 11
-4 19 -11 19 -16z m299 15 c0 -5 -4 -10 -9 -10 -5 0 -18 -3 -28 -6 -16 -6 -16
-5 2 9 23 19 35 21 35 7z m-5286 -61 c7 -39 4 -44 -22 -30 -19 10 -32 46 -24
69 7 22 39 -6 46 -39z m181 31 c3 -6 -1 -7 -9 -4 -18 7 -21 14 -7 14 6 0 13
-4 16 -10z m760 -8 c26 -19 55 -94 55 -141 0 -49 0 -49 -25 -38 -20 10 -25 19
-25 52 -1 22 -7 51 -15 65 -24 43 -18 83 10 62z m3633 -12 c13 0 22 -6 22 -15
0 -8 -4 -15 -8 -15 -5 0 -22 -13 -38 -30 -36 -36 -44 -37 -75 -4 l-24 26 29
25 c19 16 36 23 50 19 12 -3 31 -6 44 -6z m-6249 -70 c-1 -19 5 -51 14 -71 9
-20 19 -60 23 -90 4 -30 10 -58 14 -64 4 -5 10 -22 14 -37 11 -45 -20 -34 -42
15 -24 55 -67 280 -58 304 7 17 8 17 22 -2 8 -11 14 -36 13 -55z m5611 50 c0
-11 -6 -20 -14 -20 -18 0 -29 16 -21 30 11 18 35 11 35 -10z m-3718 -27 c10
-9 18 -30 18 -48 0 -30 37 -85 57 -85 4 0 8 -20 8 -45 0 -41 -3 -47 -25 -52
-14 -4 -44 -16 -67 -28 -43 -23 -62 -24 -129 -6 -41 11 -73 48 -60 70 4 6 2
19 -3 30 -8 14 -6 22 8 35 9 9 24 16 31 16 7 0 22 8 33 17 18 17 19 17 33 -2
8 -10 14 -28 14 -39 0 -27 23 -93 37 -107 31 -31 80 34 54 70 -6 9 -16 27 -22
41 -5 14 -17 38 -25 54 -17 35 -18 51 -4 77 13 23 18 24 42 2z m7484 -173 c2
-160 8 -209 28 -212 6 -1 37 -2 69 -2 40 -1 61 -6 67 -16 15 -24 -11 -40 -86
-53 -38 -6 -71 -12 -73 -14 -2 -1 12 -18 32 -36 20 -18 42 -49 48 -68 7 -19
15 -36 19 -39 4 -3 10 -17 14 -32 8 -33 -17 -40 -33 -9 -6 10 -22 22 -36 25
-13 3 -32 20 -40 36 -9 17 -20 30 -25 30 -6 0 -30 18 -53 39 -24 22 -48 37
-53 33 -6 -4 -12 -34 -13 -67 -1 -33 -8 -69 -15 -80 -12 -18 -12 -24 0 -40 8
-10 14 -24 14 -30 0 -16 -136 -75 -355 -155 -27 -10 -63 -26 -80 -34 -16 -9
-37 -16 -45 -16 -8 0 -40 -9 -70 -21 -30 -11 -72 -27 -94 -35 -51 -18 -97 -18
-163 3 -53 17 -54 17 -135 -11 -45 -15 -96 -37 -112 -49 -17 -12 -38 -26 -47
-32 -50 -31 -96 -64 -108 -79 -7 -9 -20 -16 -28 -16 -16 0 36 80 72 112 19 17
19 19 3 28 -10 6 -18 18 -18 26 0 9 7 14 18 12 9 -1 29 10 44 25 15 15 35 27
44 27 15 0 15 -3 -4 -23 -23 -24 -29 -47 -13 -47 6 0 16 8 23 18 7 9 39 30 70
45 67 32 76 42 48 57 -26 14 -17 30 19 30 15 0 36 7 47 15 25 19 59 19 90 -1
19 -13 30 -14 47 -7 12 6 36 8 54 6 24 -4 34 0 42 15 9 17 18 20 46 15 l36 -6
-17 30 c-15 26 -20 28 -40 19 -12 -6 -19 -16 -16 -24 4 -11 -3 -13 -35 -7 -27
4 -48 2 -61 -6 -23 -14 -83 -2 -90 19 -3 11 5 13 66 16 9 1 22 7 27 14 10 13
112 41 152 42 18 0 22 -6 25 -37 3 -34 6 -38 28 -35 14 1 39 4 55 5 60 6 98
20 102 39 6 20 12 22 32 9 11 -7 11 -10 -1 -17 -8 -5 -17 -16 -21 -26 -8 -24
28 -30 64 -10 35 20 36 28 7 35 -22 6 -22 6 4 27 31 24 64 26 72 5 9 -24 39
-17 67 14 18 21 23 33 16 40 -7 7 -7 22 1 47 9 30 8 41 -3 58 -18 25 -19 68
-3 84 9 9 9 12 -1 12 -7 0 -11 5 -9 12 3 7 18 12 34 13 l29 0 6 78 c5 72 7 80
38 108 31 28 33 33 27 72 -4 23 -11 46 -17 52 -14 14 -11 45 6 45 8 0 23 4 33
9 9 5 24 12 32 16 8 3 26 12 40 20 52 31 55 23 56 -145z m-6446 134 c0 -9 -5
-14 -12 -12 -18 6 -21 28 -4 28 9 0 16 -7 16 -16z m5325 -34 c147 -10 232 -33
375 -103 120 -59 238 -182 155 -161 -34 8 -51 -4 -28 -22 24 -18 58 -18 76 1
13 12 17 12 31 -4 10 -10 31 -22 49 -25 l32 -7 -25 -14 c-14 -8 -37 -14 -52
-15 -14 0 -57 -14 -95 -30 -110 -49 -242 -112 -318 -151 -38 -20 -117 -61
-174 -90 -56 -29 -110 -63 -118 -76 -14 -21 -43 -32 -43 -16 0 10 53 86 70
101 13 11 13 14 -2 26 -22 16 -24 54 -4 62 8 3 19 19 25 35 9 27 8 29 -15 29
-16 0 -28 -8 -36 -25 -6 -14 -17 -25 -24 -25 -7 0 -26 -11 -42 -25 -32 -27
-48 -20 -37 15 5 15 0 23 -20 32 -14 6 -28 23 -31 37 -11 50 -13 52 -51 49
-31 -2 -40 1 -48 20 -11 24 -25 30 -25 10 0 -33 -22 -88 -35 -88 -9 0 -17 -15
-21 -40 -4 -22 -10 -37 -15 -34 -12 7 -12 74 0 74 5 0 12 19 16 41 4 23 15 60
25 83 10 22 21 59 24 81 3 22 3 33 0 25 -11 -25 -36 -50 -51 -50 -8 0 -13 12
-13 30 0 35 -10 38 -28 10 -12 -20 -42 -28 -42 -10 0 25 35 108 56 132 12 16
25 36 28 45 3 10 27 31 53 48 27 16 53 35 58 42 21 26 87 31 140 11 32 -12 97
-22 180 -28z m-6168 6 c33 -21 41 -40 23 -51 -5 -3 -10 -17 -10 -30 0 -30 -19
-43 -34 -23 -6 9 -26 19 -44 23 -50 10 -68 61 -36 97 20 21 53 16 101 -16z
m4432 -5 c-3 -6 -10 -7 -18 -2 -7 5 -10 14 -6 21 9 14 29 -2 24 -19z m-364
-70 c-26 -53 -55 -74 -55 -40 0 11 10 24 23 30 18 8 23 17 19 35 -3 19 0 24
16 24 20 0 20 -1 -3 -49z m-5942 22 c3 -5 8 -44 12 -89 6 -69 4 -82 -9 -87
-26 -10 -45 3 -54 36 -10 38 -4 117 10 135 12 13 34 16 41 5z m2960 -8 c-1 -5
-8 -14 -17 -20 -18 -11 -42 7 -31 25 8 13 51 9 48 -5z m-343 -14 c11 -22 0
-34 -24 -25 -16 6 -21 25 -9 37 11 12 22 8 33 -12z m2658 7 c-6 -18 -28 -21
-28 -4 0 9 7 16 16 16 9 0 14 -5 12 -12z m246 -15 c-9 -38 -23 -51 -34 -34 -6
10 -2 22 13 38 28 29 29 29 21 -4z m135 -2 c19 -18 45 -30 73 -34 42 -6 88
-44 88 -74 0 -7 11 -15 25 -19 29 -7 27 -29 -7 -75 -23 -30 -16 -79 12 -86 12
-3 16 -11 12 -25 -6 -23 -11 -23 86 -1 19 5 23 2 20 -12 -4 -22 -55 -52 -95
-57 -42 -5 -35 -31 14 -48 40 -13 43 -13 66 8 13 12 33 22 45 22 28 0 65 -37
58 -56 -3 -8 1 -17 9 -20 8 -4 15 -15 15 -25 0 -10 4 -19 9 -19 11 0 31 -55
31 -86 0 -13 -9 -28 -20 -34 -11 -6 -20 -18 -20 -26 0 -11 -9 -14 -32 -12 -27
2 -33 0 -33 -17 0 -16 9 -21 43 -26 87 -11 81 -49 -8 -49 -39 0 -62 -5 -67
-14 -4 -7 -19 -13 -33 -12 -30 1 -40 -30 -14 -48 9 -7 14 -18 11 -23 -4 -6 17
-13 54 -17 33 -3 65 -9 70 -12 19 -11 -11 -31 -55 -37 -24 -4 -70 -18 -101
-32 -69 -30 -65 -30 -65 -6 0 10 18 35 40 55 l40 36 -25 10 c-19 7 -25 15 -21
28 3 9 7 30 10 46 7 37 12 42 31 26 13 -11 19 -11 33 3 15 16 14 17 -16 17
-37 0 -40 11 -16 60 14 27 15 39 5 65 -6 17 -11 57 -11 88 0 31 -5 59 -11 63
-6 3 -38 -6 -70 -22 l-59 -28 -29 28 c-19 19 -32 43 -36 70 -12 77 -11 76 -75
76 -33 0 -71 5 -85 12 -22 10 -31 9 -56 -6 -29 -17 -31 -17 -35 1 -4 16 -16
18 -96 18 -112 -1 -134 12 -94 54 27 28 34 51 16 51 -13 0 -13 57 0 65 6 4 36
6 67 6 43 0 60 -4 70 -17 11 -14 10 -20 -1 -33 -7 -9 -17 -27 -21 -41 -7 -20
-5 -23 6 -14 14 12 75 24 114 24 33 0 65 10 65 20 0 5 -12 21 -27 34 -26 25
-27 27 -10 43 15 15 20 16 40 4 12 -8 35 -17 52 -21 25 -5 34 -2 53 21 26 32
19 39 -41 44 -23 1 -55 8 -71 14 l-30 12 32 29 c18 16 32 36 32 44 0 22 3 20
39 -13z m-276 -16 c16 -34 14 -65 -4 -65 -5 0 -12 -1 -16 -2 -4 -2 -10 10 -13
27 -3 16 -14 34 -26 40 -15 8 -18 13 -10 22 22 24 52 14 69 -22z m-2889 -26
c30 -58 33 -94 10 -103 -28 -11 -31 -7 -38 42 -3 26 -8 62 -12 80 -9 48 9 39
40 -19z m354 18 c3 -23 -1 -27 -35 -33 -21 -4 -44 -11 -50 -17 -16 -12 -73 10
-73 28 0 22 57 29 85 11 35 -23 48 -20 41 8 -3 12 -3 26 1 30 13 12 28 -1 31
-27z m2114 -7 c-3 -29 -7 -34 -21 -25 -6 3 -11 17 -11 31 0 19 5 25 18 22 11
-3 16 -12 14 -28z m-2002 -28 c0 -13 -12 -22 -22 -16 -10 6 -1 24 13 24 5 0 9
-4 9 -8z m-1045 -11 c3 -5 1 -12 -5 -16 -5 -3 -10 1 -10 9 0 18 6 21 15 7z
m3385 -1 c0 -5 -10 -10 -22 -10 -19 0 -20 2 -8 10 19 13 30 13 30 0z m-3485
-10 c3 -5 2 -10 -4 -10 -5 0 -13 5 -16 10 -3 6 -2 10 4 10 5 0 13 -4 16 -10z
m1060 -20 c7 -11 -40 -32 -64 -28 -9 1 -22 -1 -28 -5 -16 -10 -33 0 -33 18 0
10 16 15 53 18 28 2 55 4 59 5 4 1 10 -3 13 -8z m2150 -20 c-6 -26 -4 -29 12
-23 10 3 23 10 30 15 18 14 32 1 28 -24 -5 -24 -23 -39 -45 -36 -20 2 -70 -11
-93 -23 -25 -14 -30 -7 -30 42 0 43 20 66 48 55 7 -2 16 2 19 10 3 8 13 14 21
14 13 0 15 -6 10 -30z m201 -1 l29 -31 -28 -24 c-31 -27 -67 -32 -67 -9 0 8 9
19 20 25 22 12 26 40 8 58 -7 7 -8 12 -2 12 6 0 23 -14 40 -31z m-2791 -9 c9
-15 -14 -40 -36 -40 -24 0 -33 17 -17 34 15 18 44 21 53 6z m-821 -20 c5 -6 5
-15 -2 -23 -7 -8 -9 -17 -5 -20 8 -9 -15 -9 -55 -1 -35 7 -48 30 -30 51 12 15
74 10 92 -7z m726 0 c17 -10 13 -17 -15 -22 -12 -2 -21 3 -23 15 -4 18 14 22
38 7z m1722 -15 c27 -34 86 -51 129 -36 80 28 32 -41 -50 -72 -44 -16 -45 -16
-67 4 -29 28 -45 16 -42 -29 2 -28 -1 -37 -14 -40 -13 -2 -16 1 -12 11 3 9 -2
29 -10 46 -22 41 -20 74 4 96 11 10 20 24 20 32 0 21 20 15 42 -12z m-2321 -7
c16 -29 28 -108 17 -108 -4 0 -16 5 -26 11 -14 9 -26 8 -50 -5 -24 -13 -37
-14 -52 -6 -11 6 -20 15 -20 20 0 11 29 40 41 40 5 0 9 16 9 35 0 33 2 35 35
35 25 0 37 -6 46 -22z m2109 14 c0 -13 -12 -22 -22 -16 -10 6 -1 24 13 24 5 0
9 -4 9 -8z m820 -13 c0 -5 -7 -9 -15 -9 -15 0 -20 12 -9 23 8 8 24 -1 24 -14z
m-104 -26 c61 -65 78 -128 47 -173 -15 -21 -18 -50 -19 -190 l-1 -165 44 -49
c23 -26 43 -54 43 -62 0 -7 9 -18 20 -24 28 -15 26 -56 -2 -64 -13 -3 -33 -6
-44 -6 -12 0 -27 -6 -34 -14 -9 -12 -17 -12 -35 -4 -20 9 -33 5 -80 -21 -48
-27 -56 -29 -62 -15 -4 10 2 23 14 33 29 23 35 49 15 60 -15 9 -15 11 2 30 11
12 15 22 10 23 -5 0 -13 2 -19 3 -5 2 -18 3 -27 4 -10 0 -18 8 -18 16 0 8 -6
15 -14 15 -16 0 -46 42 -46 66 0 10 -7 25 -16 35 -14 15 -14 21 -2 45 7 16 24
31 38 34 33 8 37 35 8 51 -23 12 -47 38 -48 51 0 4 10 10 23 14 28 9 37 22 37
57 0 20 7 30 25 37 22 9 24 13 19 62 -3 29 -9 65 -14 80 -7 23 -3 33 27 67 19
23 44 41 55 41 11 0 35 -17 54 -37z m1638 21 c18 -7 21 -39 5 -50 -13 -8 -29
13 -29 39 0 19 1 20 24 11z m434 -91 c7 -12 12 -35 12 -52 0 -31 37 -110 67
-143 23 -26 5 -42 -30 -29 -17 7 -27 18 -27 30 0 11 -4 23 -10 26 -5 3 -10 25
-10 48 -1 23 -7 53 -15 67 -8 14 -14 49 -14 80 1 44 2 49 8 25 4 -16 13 -40
19 -52z m582 39 c-2 -50 -28 -125 -49 -141 -28 -21 -22 -37 16 -44 41 -8 93
17 93 44 0 18 3 19 14 9 20 -16 10 -37 -40 -87 -28 -28 -51 -43 -68 -43 -36 0
-40 -15 -11 -46 14 -15 24 -31 23 -35 -6 -14 -90 -79 -103 -79 -8 0 -25 -11
-37 -23 -14 -13 -42 -27 -66 -30 -26 -5 -45 -14 -52 -27 -6 -11 -38 -28 -81
-42 -39 -12 -75 -30 -80 -40 -12 -22 -47 -24 -56 -3 -7 20 24 55 49 55 10 0
18 5 18 11 0 8 13 9 40 5 36 -6 40 -4 46 18 3 15 17 29 35 35 34 12 53 52 44
93 -8 35 2 37 15 3 17 -45 70 -29 70 22 0 8 8 31 17 50 13 28 14 39 5 54 -7
10 -12 28 -12 39 0 13 -10 24 -25 30 -15 6 -25 17 -25 29 0 10 -7 22 -15 25
-12 4 -13 10 -6 23 5 10 9 23 8 28 0 6 13 14 29 18 16 5 42 15 57 23 16 8 40
14 53 14 13 0 24 4 24 9 0 5 7 17 16 25 19 19 54 5 54 -22z m-869 -45 c-6 -6
-11 -24 -11 -39 0 -18 -5 -28 -15 -28 -9 0 -15 -9 -15 -25 0 -13 -6 -28 -12
-32 -7 -4 -24 -23 -37 -41 -30 -44 -14 -67 20 -28 12 14 31 26 41 26 10 0 18
7 18 16 0 8 5 12 10 9 15 -10 12 -46 -7 -67 -9 -10 -21 -28 -27 -40 -16 -30
-31 -32 -55 -7 -11 13 -22 21 -24 18 -56 -76 -49 -97 33 -98 51 -1 67 7 74 34
5 19 13 25 35 25 16 0 34 -7 41 -15 10 -12 7 -15 -14 -21 -14 -3 -26 -10 -26
-15 0 -16 41 -9 81 13 36 20 43 30 40 51 0 4 5 7 12 8 6 1 28 3 47 5 51 6 50
7 114 -5 76 -13 96 -29 77 -59 -6 -11 -17 -11 -51 -2 -67 18 -157 -2 -206 -46
l-39 -35 -120 7 c-66 3 -133 7 -149 9 -37 4 -53 20 -39 37 6 7 16 31 22 53 7
22 16 49 20 60 5 11 14 37 21 58 12 39 63 121 81 132 5 4 9 17 9 30 0 13 12
38 28 56 l27 33 3 -33 c2 -19 -1 -38 -7 -44z m-3311 53 c0 -5 -2 -10 -4 -10
-3 0 -8 5 -11 10 -3 6 -1 10 4 10 6 0 11 -4 11 -10z m2143 -6 c9 -4 17 -13 17
-20 0 -17 -32 -18 -48 -2 -16 16 -15 41 1 34 6 -3 20 -9 30 -12z m-5127 -41
c-10 -10 -19 5 -10 18 6 11 8 11 12 0 2 -7 1 -15 -2 -18z m1471 12 c3 -9 3
-18 0 -21 -11 -12 -113 -21 -130 -12 -40 21 2 43 91 47 21 1 35 -4 39 -14z
m4433 -6 c0 -5 -11 -9 -25 -9 -26 0 -34 15 -12 23 16 5 37 -3 37 -14z m-2870
-30 c0 -11 -7 -19 -15 -19 -10 0 -15 10 -15 31 0 27 2 30 15 19 8 -7 15 -21
15 -31z m-1010 27 c0 -3 -4 -8 -10 -11 -5 -3 -10 -1 -10 4 0 6 5 11 10 11 6 0
10 -2 10 -4z m-245 -25 c7 -12 -12 -24 -25 -16 -11 7 -4 25 10 25 5 0 11 -4
15 -9z m101 -1 c18 -7 24 -14 17 -21 -12 -12 -65 9 -57 22 7 11 7 11 40 -1z
m4593 -14 c13 -13 25 -42 28 -65 6 -40 5 -41 -24 -41 -17 0 -38 -9 -48 -20
-17 -19 -19 -19 -37 -4 -18 17 -25 64 -10 64 5 0 16 6 26 13 16 12 17 16 5 36
-12 18 -12 23 1 31 23 15 35 12 59 -14z m-119 -9 c0 -28 -17 -47 -42 -47 -24
0 -23 13 5 44 27 32 37 33 37 3z m-2623 -3 c5 -14 -22 -25 -42 -18 -8 4 -15
11 -15 18 0 15 52 15 57 0z m1441 -14 c-4 -31 -38 -39 -62 -14 -23 22 -3 45
36 42 25 -2 28 -6 26 -28z m978 -66 c-5 -17 -13 -24 -31 -24 -37 0 -31 37 15
94 14 17 15 17 18 -14 2 -18 1 -43 -2 -56z m3257 80 c11 -11 -3 -24 -18 -18
-8 4 -12 10 -9 15 6 11 18 12 27 3z m-7711 -34 c-1 -13 -6 -28 -10 -32 -12
-12 -47 2 -61 24 -16 26 0 39 44 36 25 -3 30 -7 27 -28z m3221 -4 c6 -16 -2
-28 -14 -20 -12 7 -11 34 0 34 5 0 11 -6 14 -14z m-3503 -21 c10 -19 21 -25
49 -25 20 0 43 -5 51 -10 13 -9 11 -13 -9 -31 l-24 -20 -24 23 c-13 13 -30 23
-36 24 -7 0 -19 2 -28 2 -22 2 -32 31 -18 48 16 20 24 18 39 -11z m3935 14 c8
-11 -25 -40 -37 -33 -5 3 -8 14 -8 25 0 21 34 27 45 8z m-1585 -19 c0 -5 -4
-10 -10 -10 -5 0 -10 5 -10 10 0 6 5 10 10 10 6 0 10 -4 10 -10z m426 1 c-7
-11 -66 -20 -66 -10 0 4 15 10 33 12 17 2 33 5 35 5 2 1 1 -2 -2 -7z m-1276
-15 c0 -16 -42 -46 -65 -46 -21 0 -30 27 -15 45 16 19 80 20 80 1z m4507 -18
c-3 -18 -10 -53 -16 -78 -13 -59 -6 -246 10 -266 11 -13 15 -12 35 9 26 29 93
44 122 28 10 -5 27 -30 36 -55 16 -42 16 -46 0 -73 -10 -15 -22 -32 -28 -38
-6 -5 -19 -22 -29 -37 -13 -21 -26 -28 -48 -28 -53 0 -69 15 -69 66 0 41 -2
44 -19 35 -23 -13 -30 -5 -59 62 -16 36 -19 54 -12 73 6 14 10 85 10 159 l0
133 28 21 c38 28 45 26 39 -11z m-3609 -20 c15 -41 2 -59 -36 -47 -15 5 -39
11 -54 14 -44 9 -35 35 11 35 25 0 41 5 45 15 9 24 21 18 34 -17z m-3773 7
c16 -2 34 -11 40 -21 5 -9 20 -29 32 -44 12 -15 20 -30 16 -34 -14 -13 -34 -5
-63 27 -23 26 -36 33 -58 29 -37 -5 -85 32 -62 48 8 6 26 8 40 5 14 -4 38 -8
55 -10z m4775 4 c0 -20 -21 -49 -35 -49 -19 0 -19 10 1 38 16 23 34 29 34 11z
m500 -39 c1 -28 25 -61 55 -75 16 -8 12 -10 -24 -13 -65 -5 -75 1 -66 46 4 20
7 44 7 52 0 8 2 22 4 30 5 13 6 13 14 0 6 -8 10 -26 10 -40z m-4760 30 c0 -5
-2 -10 -4 -10 -3 0 -8 5 -11 10 -3 6 -1 10 4 10 6 0 11 -4 11 -10z m4514 2 c8
-13 -8 -28 -31 -29 -22 -2 -31 16 -16 30 9 10 41 9 47 -1z m3664 0 c17 -11 5
-40 -19 -47 -10 -3 -41 -8 -69 -10 -28 -2 -62 -10 -76 -19 -24 -16 -44 -14
-44 4 0 5 10 12 23 15 24 7 77 30 117 51 29 15 50 17 68 6z m-3728 -44 c0 -14
-8 -18 -40 -18 -22 0 -40 -5 -40 -11 0 -6 -9 -9 -20 -7 -29 4 -26 22 5 26 16
2 30 13 37 27 9 20 14 22 34 13 13 -6 24 -19 24 -30z m-1061 1 c18 -52 14 -69
-14 -69 -22 0 -25 4 -25 34 0 68 21 87 39 35z m2549 -13 c3 -20 0 -27 -10 -24
-7 3 -14 17 -16 32 -3 20 0 27 10 24 7 -3 14 -17 16 -32z m-64 15 c11 -17 -6
-70 -25 -76 -35 -11 -41 5 -17 46 22 39 32 47 42 30z m-5853 -14 c-1 -12 -15
-9 -19 4 -3 6 1 10 8 8 6 -3 11 -8 11 -12z m4124 -7 c0 -8 -10 -16 -22 -18
-22 -3 -32 16 -16 32 12 11 38 2 38 -14z m3205 -20 c0 -5 -9 -14 -20 -20 -12
-6 -25 -23 -31 -36 -10 -28 -32 -28 -37 0 -6 30 26 66 58 66 17 0 30 -4 30
-10z m-2778 -22 c-9 -9 -15 -9 -24 0 -9 9 -7 12 12 12 19 0 21 -3 12 -12z
m3361 1 c7 0 1 -4 -11 -10 -26 -10 -46 -3 -36 12 3 6 13 8 21 5 8 -3 20 -6 26
-7z m-8629 -18 c13 -14 16 -28 11 -49 -5 -25 -2 -33 23 -51 17 -12 39 -21 50
-21 25 0 34 -12 26 -33 -5 -13 -8 -13 -25 4 -10 10 -30 19 -44 19 -17 0 -33
12 -55 45 -17 25 -28 45 -23 45 4 0 2 5 -5 12 -7 7 -12 20 -12 30 0 24 32 23
54 -1z m-101 -29 c12 -11 14 -18 6 -23 -21 -13 -49 2 -49 28 0 25 8 24 43 -5z
m4441 22 c18 -7 12 -24 -10 -24 -8 0 -14 7 -14 15 0 17 2 18 24 9z m-1467 -40
c4 -10 0 -20 -10 -26 -21 -11 -22 -32 -2 -48 8 -7 15 -16 15 -21 0 -5 -7 -9
-15 -9 -8 0 -15 9 -15 20 0 11 -7 20 -15 20 -27 0 -29 30 -5 56 27 28 38 30
47 8z m2274 -4 c20 -11 27 -60 9 -60 -5 0 -22 -13 -37 -30 -30 -34 -53 -39
-53 -11 0 11 -3 26 -6 35 -4 10 6 27 24 46 34 34 36 34 63 20z m187 -22 c-7
-19 -38 -22 -38 -4 0 10 9 16 21 16 12 0 19 -5 17 -12z m2647 -18 c3 -5 1 -10
-4 -10 -6 0 -11 5 -11 10 0 6 2 10 4 10 3 0 8 -4 11 -10z m-7720 -10 c-3 -5
-10 -10 -16 -10 -5 0 -9 5 -9 10 0 6 7 10 16 10 8 0 12 -4 9 -10z m4095 0 c0
-5 -4 -10 -10 -10 -5 0 -10 5 -10 10 0 6 5 10 10 10 6 0 10 -4 10 -10z m-3015
-40 c6 -1 -1 -5 -13 -11 -25 -10 -46 -4 -37 11 3 4 13 7 23 5 9 -2 22 -4 27
-5z m390 1 c6 -11 -33 -51 -50 -51 -7 0 -26 -13 -43 -30 -34 -32 -51 -37 -69
-19 -18 18 -4 44 45 77 46 30 105 42 117 23z m579 0 c3 -5 -1 -11 -9 -15 -9
-3 -15 0 -15 9 0 16 16 20 24 6z m2729 -25 c3 -8 0 -21 -6 -31 -17 -22 -47 -9
-47 21 0 19 5 24 24 24 13 0 26 -6 29 -14z m571 -35 c22 -34 28 -37 64 -35 30
1 39 -2 35 -11 -2 -8 -17 -17 -33 -20 -15 -3 -36 -15 -46 -26 -16 -18 -16 -22
1 -74 13 -36 22 -51 29 -45 7 5 24 3 42 -5 41 -17 51 -58 18 -76 -13 -6 -26
-25 -29 -40 -9 -40 -23 -45 -52 -18 -66 62 -96 159 -89 291 6 122 15 131 60
59z m2178 37 c16 -13 32 -48 22 -48 -12 0 -64 42 -64 51 0 13 23 11 42 -3z
m-7637 -38 c0 -13 -5 -25 -11 -27 -13 -4 -26 35 -18 49 10 16 29 2 29 -22z
m1175 5 c0 -8 -9 -15 -20 -15 -22 0 -27 15 -7 23 21 9 27 7 27 -8z m5168 -22
c2 -11 -4 -26 -13 -33 -13 -11 -15 -8 -15 25 0 39 22 46 28 8z m-2328 -3 c44
-22 57 -58 18 -45 -13 4 -51 9 -85 12 -35 3 -63 9 -63 14 0 11 50 38 73 39 10
0 36 -9 57 -20z m-2990 -15 c0 -20 -5 -25 -25 -25 -27 0 -33 18 -13 38 20 20
38 14 38 -13z m1588 -2 c-4 -22 -38 -30 -38 -10 0 14 13 24 33 26 5 1 7 -7 5
-16z m-1518 -8 c0 -8 -4 -15 -10 -15 -5 0 -10 7 -10 15 0 8 5 15 10 15 6 0 10
-7 10 -15z m-1055 -20 c0 -10 -6 -20 -12 -22 -8 -3 -13 5 -13 22 0 17 5 25 13
23 6 -3 12 -13 12 -23z m819 -36 c12 -14 14 -25 8 -31 -12 -12 -82 -2 -82 12
0 42 44 54 74 19z m7940 7 c-6 -15 -126 -77 -184 -95 -48 -15 -219 -51 -242
-51 -56 0 41 64 114 74 25 4 52 14 58 21 15 18 50 20 50 3 0 -8 5 -6 10 4 8
12 19 15 51 11 38 -6 59 0 119 33 31 17 30 17 24 0z m-6146 -16 c16 -26 6 -46
-14 -29 -11 9 -18 9 -26 1 -7 -7 -19 -12 -28 -12 -22 0 -54 -36 -45 -49 3 -6
15 -11 26 -11 15 0 19 -7 19 -31 0 -47 -37 -36 -68 20 -22 40 -23 46 -8 56 9
7 16 16 16 22 0 20 23 32 41 22 14 -7 23 -5 36 10 23 25 35 25 51 1z m1337
-11 c20 -38 17 -124 -4 -124 -8 0 -20 16 -26 35 -6 19 -19 36 -28 38 -11 2
-17 13 -17 31 0 56 50 69 75 20z m1700 21 c3 -5 1 -10 -4 -10 -6 0 -11 5 -11
10 0 6 2 10 4 10 3 0 8 -4 11 -10z m-5615 -31 c0 -11 7 -27 15 -35 8 -9 15
-23 15 -32 0 -13 -4 -12 -19 7 -12 16 -21 20 -25 12 -19 -31 -41 6 -26 44 12
30 40 33 40 4z m2388 -2 c2 -12 -1 -15 -12 -11 -19 7 -22 38 -3 32 6 -3 13
-12 15 -21z m6462 8 c7 -8 19 -15 26 -15 26 0 14 -39 -23 -75 -21 -20 -67 -50
-103 -66 -36 -17 -74 -35 -85 -40 -11 -5 -42 -14 -70 -19 -27 -5 -86 -17 -131
-26 -66 -13 -88 -14 -124 -4 -38 10 -42 14 -28 24 9 7 16 21 15 32 -2 16 4 19
33 17 77 -6 276 43 300 73 7 8 16 14 21 14 9 0 14 3 84 65 44 38 66 43 85 20z
m-5742 -18 c2 -10 -3 -17 -12 -17 -10 0 -16 9 -16 21 0 24 23 21 28 -4z m882
8 c7 -8 21 -15 31 -15 34 0 39 -31 12 -77 -24 -42 -25 -42 -47 -26 -25 19 -49
92 -40 118 8 19 28 19 44 0z m2511 5 c5 0 9 -9 9 -20 0 -25 -21 -26 -42 -1
-18 21 -12 35 10 26 7 -3 18 -5 23 -5z m819 0 c0 -5 -4 -10 -10 -10 -5 0 -10
5 -10 10 0 6 5 10 10 10 6 0 10 -4 10 -10z m-3520 -10 c0 -5 -4 -10 -10 -10
-5 0 -10 5 -10 10 0 6 5 10 10 10 6 0 10 -4 10 -10z m2576 -5 c4 -10 16 -14
32 -13 39 4 38 -20 -2 -106 -29 -63 -34 -87 -34 -142 0 -48 -4 -70 -16 -82
-12 -12 -19 -13 -28 -4 -13 13 5 191 21 201 5 3 12 24 16 45 8 38 7 39 -18 32
-34 -8 -38 1 -20 47 16 38 39 49 49 22z m2784 -1 c0 -24 -19 -54 -35 -54 -18
0 -18 -1 -4 39 11 32 39 43 39 15z m-5422 -31 c-2 -10 -10 -18 -18 -18 -8 0
-16 8 -18 18 -2 12 3 17 18 17 15 0 20 -5 18 -17z m-1101 -18 c3 -9 3 -18 1
-21 -9 -9 -38 8 -38 22 0 19 29 18 37 -1z m-46 -37 c26 -48 33 -50 95 -27 50
19 69 21 147 15 50 -4 99 -12 110 -18 12 -6 38 -7 66 -3 90 15 134 11 191 -19
59 -30 122 -84 114 -98 -3 -4 -29 -5 -57 -2 -61 7 -72 -1 -85 -61 -4 -21 -13
-40 -19 -42 -6 -2 -40 25 -76 60 -87 87 -147 112 -277 111 -52 0 -111 -3 -130
-8 -30 -7 -39 -4 -60 16 -14 14 -33 28 -43 31 -21 8 -31 31 -23 52 8 22 34 18
47 -7z m1968 8 c8 -10 23 -13 45 -9 l33 5 7 -52 c8 -60 1 -70 -51 -70 -21 0
-33 -5 -33 -14 0 -8 -8 -24 -18 -36 l-19 -23 -16 23 c-24 35 -34 15 -12 -25
37 -70 -13 -50 -58 22 -24 40 -31 44 -60 41 -27 -3 -33 1 -35 20 -6 38 5 54
26 43 17 -9 21 -5 35 29 19 49 39 58 66 31 21 -21 47 -29 37 -12 -19 31 30 55
53 27z m1436 -5 c32 -5 41 -11 43 -29 4 -27 -34 -92 -54 -92 -8 0 -19 -12 -24
-26 -9 -22 -15 -26 -44 -22 -31 3 -33 2 -25 -14 10 -18 -4 -58 -19 -58 -4 0
-21 25 -36 56 -31 61 -48 73 -72 53 -14 -11 -18 -10 -30 6 -24 33 -18 55 16
55 20 0 32 6 36 18 11 35 22 47 44 50 12 2 27 -1 33 -7 18 -18 37 -13 37 10 0
18 4 20 28 14 15 -5 45 -11 67 -14z m-825 -32 c0 -5 -4 -9 -10 -9 -5 0 -10 7
-10 16 0 8 5 12 10 9 6 -3 10 -10 10 -16z m2905 -9 c-19 -21 -50 -27 -60 -11
-7 13 24 30 54 31 23 0 24 -1 6 -20z m-3282 -30 c-3 -11 -9 -20 -14 -20 -10 0
-12 33 -3 43 12 12 22 -3 17 -23z m277 0 c0 -29 1 -30 50 -30 27 0 74 -9 105
-21 66 -25 70 -44 12 -73 -21 -10 -76 -55 -122 -100 -97 -96 -144 -179 -152
-276 -5 -52 -10 -64 -34 -81 -39 -27 -222 -89 -265 -89 -9 0 -21 14 -27 30 -6
17 -16 29 -22 27 -17 -6 -17 -36 -1 -53 16 -15 23 -64 9 -64 -4 0 -18 10 -31
23 l-25 22 12 -23 c14 -26 1 -52 -25 -52 -21 0 -54 -60 -54 -97 0 -17 -4 -35
-10 -38 -6 -4 -10 10 -10 33 0 26 -5 42 -15 46 -22 8 -20 48 3 44 12 -2 18 5
20 25 4 37 -19 36 -51 -3 -17 -19 -35 -30 -52 -30 -15 0 -36 -11 -50 -26 -18
-19 -32 -25 -49 -22 -25 5 -44 -14 -76 -75 -11 -22 -19 -27 -36 -23 -19 5 -27
-4 -58 -69 -20 -41 -44 -78 -54 -84 -10 -5 -24 -21 -32 -35 -28 -53 -40 -20
-17 44 23 62 45 96 99 151 69 69 88 97 88 129 0 23 15 57 70 161 25 48 71 75
140 82 63 7 90 -2 65 -23 -27 -23 -17 -36 27 -35 32 1 44 5 46 19 5 24 -18 52
-29 34 -4 -7 -11 -9 -16 -5 -4 5 3 17 17 28 24 19 45 20 83 4 14 -6 17 -2 17
19 0 17 17 44 49 80 27 29 51 60 53 67 10 26 42 -5 58 -54 17 -53 30 -61 30
-19 0 15 7 40 15 56 8 15 15 34 15 41 0 17 -26 26 -55 19 -12 -3 -26 -1 -29 4
-10 16 69 89 104 97 25 6 36 17 57 62 15 30 33 57 42 60 53 19 69 66 20 61
-39 -4 -60 21 -40 46 10 11 31 16 72 16 59 0 59 0 59 -30z m-3992 2 c3 -9 -2
-13 -14 -10 -9 1 -19 9 -22 16 -3 9 2 13 14 10 9 -1 19 -9 22 -16z m-948 -16
c0 -18 -76 -96 -94 -96 -8 0 -19 7 -24 16 -15 27 -109 24 -149 -5 -60 -45 -79
-136 -39 -193 19 -26 8 -78 -16 -78 -93 0 -165 170 -113 270 10 19 14 42 11
57 -4 13 -5 27 -2 31 8 13 426 10 426 -2z m1908 -19 c4 -31 -4 -34 -36 -11
-19 13 -21 19 -11 30 18 22 44 12 47 -19z m6880 7 c6 -45 -168 -144 -253 -144
-13 0 -26 -4 -30 -9 -3 -6 -31 -9 -63 -9 -32 0 -68 -5 -81 -11 -12 -7 -55 -14
-94 -16 -44 -2 -101 -13 -148 -29 -82 -28 -99 -31 -99 -16 0 13 78 50 104 50
12 0 34 9 50 19 17 11 33 18 37 15 12 -7 133 27 150 42 8 8 22 14 30 14 8 0
34 7 59 16 25 9 70 18 100 19 87 6 115 15 156 51 43 38 77 41 82 8z m-7894 -4
c47 0 50 -27 4 -32 -28 -3 -80 13 -98 29 -11 10 25 21 41 12 10 -5 34 -9 53
-9z m5271 -26 c0 -19 -5 -29 -15 -29 -16 0 -25 28 -16 51 10 25 31 10 31 -22z
m-4351 -37 c-2 -7 11 -22 30 -34 l34 -22 12 29 c20 49 61 48 74 -3 3 -12 21
-32 41 -45 19 -12 35 -28 35 -36 0 -8 -22 -21 -49 -30 -71 -23 -81 -21 -81 14
0 25 -4 30 -25 30 -14 0 -35 11 -47 25 -14 16 -28 23 -40 19 -20 -6 -24 6 -7
23 8 8 8 17 -1 32 -15 28 -2 50 16 27 7 -10 11 -23 8 -29z m919 16 c12 -12 42
-20 81 -23 52 -4 61 -8 64 -26 2 -17 -5 -23 -44 -34 -31 -9 -61 -28 -90 -57
-37 -36 -50 -43 -83 -43 -39 0 -40 1 -46 38 -14 83 -25 83 -65 -2 -34 -74 -40
-80 -78 -71 -23 5 -29 13 -39 56 -12 47 -11 54 11 92 26 48 61 59 101 33 37
-24 60 -19 89 19 31 40 67 46 99 18z m-1135 -5 c14 -14 16 -48 3 -48 -18 0
-54 37 -47 48 9 15 29 15 44 0z m426 -3 c3 -8 1 -15 -3 -15 -5 0 -11 7 -15 15
-3 8 -1 15 3 15 5 0 11 -7 15 -15z m2189 -7 c8 -30 2 -35 -33 -30 -29 4 -41
28 -23 45 15 16 51 6 56 -15z m532 6 c19 -19 7 -38 -18 -28 -18 6 -24 44 -8
44 5 0 17 -7 26 -16z m860 -14 c0 -30 -35 -40 -54 -16 -20 24 -6 48 26 44 22
-2 28 -8 28 -28z m2530 20 c27 -1 -59 -35 -107 -43 -22 -3 -38 -2 -38 4 0 15
82 50 105 44 11 -3 29 -5 40 -5z m-1325 -20 c0 -14 -7 -20 -23 -20 -30 0 -40
10 -26 27 18 20 49 16 49 -7z m1420 10 c0 -5 -11 -10 -25 -10 -14 0 -25 5 -25
10 0 6 11 10 25 10 14 0 25 -4 25 -10z m-1490 -25 c0 -15 -34 -38 -43 -29 -6
7 24 44 35 44 5 0 8 -7 8 -15z m-5490 -15 c0 -13 -7 -20 -20 -20 -13 0 -20 7
-20 20 0 13 7 20 20 20 13 0 20 -7 20 -20z m-1176 -37 c-12 -114 -16 -133 -24
-138 -5 -3 -5 -19 0 -37 12 -41 4 -52 -21 -27 -12 12 -22 38 -24 62 -7 74 -16
141 -22 162 -3 11 -2 17 1 14 4 -4 19 -3 34 1 57 17 62 14 56 -37z m881 11 c0
-31 19 -40 62 -29 21 5 24 10 19 30 -6 23 -4 25 34 25 38 0 52 -12 29 -25 -9
-6 -8 -89 4 -220 2 -16 -3 -19 -22 -17 -14 1 -27 4 -29 7 -6 6 -7 93 -1 120 4
18 -2 20 -50 23 -69 4 -88 -2 -70 -24 10 -12 10 -20 1 -35 -7 -11 -10 -24 -6
-30 3 -5 0 -17 -8 -26 -10 -13 -10 -17 0 -20 19 -7 14 -23 -7 -23 -15 0 -19 8
-19 38 -1 20 -6 61 -12 91 -5 29 -10 76 -10 102 l0 49 42 -4 c39 -3 42 -6 43
-32z m-465 20 c0 -3 -4 -14 -10 -24 -5 -10 -11 -72 -12 -137 l-3 -118 -32 -3
c-37 -4 -38 0 -23 63 6 26 6 51 -1 72 -9 27 -6 41 17 93 19 41 34 60 46 60 10
0 18 -3 18 -6z m296 -8 c27 -20 12 -30 -42 -27 -50 1 -94 -19 -94 -44 0 -9 10
-15 25 -15 16 0 25 -6 25 -16 0 -8 14 -28 31 -44 20 -18 30 -34 26 -44 -10
-26 -40 -18 -62 16 -11 18 -43 43 -72 57 -29 14 -53 31 -53 37 0 20 38 61 72
77 41 20 118 22 144 3z m5290 -21 c-8 -23 -25 -9 -19 16 4 13 9 17 16 10 5 -5
7 -17 3 -26z m645 -5 c34 0 41 -75 8 -85 -18 -6 -20 -13 -15 -53 13 -114 14
-107 -19 -103 -16 2 -83 5 -148 6 -101 2 -120 5 -131 21 -8 10 -12 23 -9 30 2
6 -3 14 -11 17 -20 8 -21 27 -1 27 9 0 19 8 22 18 4 9 17 27 30 39 13 12 23
29 23 37 0 9 6 13 14 10 7 -3 16 2 19 10 4 9 17 16 29 16 13 0 33 7 44 15 12
8 34 16 49 19 15 3 30 7 32 10 3 3 14 -4 26 -15 11 -10 28 -19 38 -19z m-6315
19 c3 -6 -6 -23 -20 -38 -24 -25 -25 -29 -11 -41 20 -16 1 -43 -25 -35 -31 10
-64 -62 -40 -90 8 -10 9 -19 1 -32 -9 -16 -10 -16 -19 7 -6 14 -17 44 -27 67
-12 31 -14 46 -6 61 6 11 7 22 4 26 -9 9 67 74 92 79 37 8 44 7 51 -4z m3723
-21 c31 -82 33 -97 15 -127 -10 -16 -28 -34 -41 -40 -50 -23 -135 -96 -153
-132 -22 -43 -41 -51 -90 -40 -32 7 -35 10 -32 41 1 19 9 38 17 43 8 4 15 18
15 30 0 12 18 42 40 65 22 24 40 46 40 50 0 3 -9 16 -21 28 l-20 22 30 21 c23
17 38 20 69 15 32 -5 43 -2 68 20 36 32 52 32 63 4z m-1996 -4 c11 -11 -5 -34
-24 -34 -18 0 -26 20 -12 33 8 9 28 9 36 1z m4677 -40 c0 -21 -4 -33 -10 -29
-5 3 -10 19 -10 36 0 16 5 29 10 29 6 0 10 -16 10 -36z m2020 22 c0 -7 10 -25
21 -40 33 -42 12 -45 -26 -5 -25 27 -31 39 -22 48 15 15 27 14 27 -3z m-7562
-14 c3 -10 -4 -13 -24 -10 -15 2 -29 9 -32 16 -3 10 4 13 24 10 15 -2 29 -9
32 -16z m2060 -19 c-4 -22 -22 -20 -26 1 -2 10 3 16 13 16 10 0 15 -7 13 -17z
m-247 -46 c-13 -13 -26 -3 -16 12 3 6 11 8 17 5 6 -4 6 -10 -1 -17z m2209 -17
c0 -28 -11 -51 -21 -44 -10 6 -12 57 -3 67 11 10 24 -3 24 -23z m3423 -10 c20
-21 47 -57 61 -78 25 -39 79 -88 126 -112 14 -7 35 -23 48 -36 27 -26 15 -39
-28 -29 -16 4 -45 1 -65 -6 -28 -10 -35 -18 -35 -39 0 -15 3 -29 6 -33 11 -11
14 -96 3 -103 -6 -3 -6 -10 -1 -17 5 -7 7 -27 5 -45 -5 -29 -9 -33 -28 -28
-28 7 -38 -13 -29 -59 5 -28 2 -34 -16 -40 -12 -4 -24 -4 -27 -1 -3 3 -6 33
-7 66 -1 41 -7 64 -16 70 -8 6 -53 10 -100 10 -64 0 -94 -5 -120 -18 -60 -32
-78 -11 -35 40 14 16 25 38 25 47 0 10 14 35 30 56 17 21 30 44 30 51 0 7 8
18 19 23 10 6 21 17 24 25 8 21 -15 67 -31 61 -17 -6 -28 23 -13 38 18 18 13
44 -15 66 -15 12 -22 21 -15 21 6 0 11 9 11 20 0 23 29 52 74 74 52 26 80 20
119 -24z m-4872 9 c-5 -18 -21 -107 -24 -134 -1 -11 -10 -23 -19 -27 -10 -4
-18 -14 -18 -22 0 -16 -91 -33 -111 -21 -7 5 -10 26 -7 57 7 66 51 130 97 139
18 4 38 12 44 18 16 16 43 8 38 -10z m2487 -27 c4 -14 -27 -16 -47 -3 -8 5
-11 16 -7 26 6 15 9 16 28 3 12 -8 24 -20 26 -26z m-2858 18 c12 -7 12 -12 2
-22 -6 -6 -12 -20 -12 -30 0 -10 -9 -26 -20 -35 -11 -10 -20 -23 -20 -30 0
-18 -31 -16 -58 3 -20 14 -29 14 -68 3 -54 -16 -58 -42 -14 -84 23 -22 43 -31
83 -35 65 -6 69 -20 27 -89 -20 -32 -29 -58 -25 -70 3 -10 33 -38 66 -61 l61
-43 34 17 c47 22 52 20 25 -8 -13 -14 -38 -26 -55 -28 -36 -4 -46 -33 -23 -70
8 -13 18 -43 21 -68 4 -25 16 -54 27 -66 23 -25 38 -137 19 -149 -5 -3 -26 -1
-45 6 -27 10 -38 10 -47 1 -7 -7 -18 -12 -25 -12 -7 0 -22 -9 -32 -19 -22 -22
-80 -30 -196 -29 -60 1 -72 3 -47 8 37 9 45 14 48 34 2 18 -52 29 -76 16 -20
-11 -30 -4 -30 22 0 10 -5 18 -11 18 -6 0 -30 16 -53 35 -49 40 -50 40 -68 22
-7 -8 -25 -17 -40 -20 -27 -7 -27 -7 -16 20 7 16 32 57 56 93 23 35 41 71 40
80 -2 8 -18 17 -39 20 -19 4 -51 18 -71 33 -19 15 -39 27 -45 27 -15 0 -22
-73 -12 -120 9 -41 2 -89 -23 -152 -9 -24 -12 -26 -25 -13 -24 24 -33 17 -33
-25 0 -22 -3 -40 -7 -40 -5 0 -18 16 -31 35 -25 40 -54 45 -79 15 -17 -20 -73
-28 -73 -12 0 5 9 19 20 32 11 13 20 26 20 30 0 3 21 30 48 58 68 74 71 78 78
106 3 14 12 30 20 37 8 6 14 17 14 25 0 24 57 79 121 117 34 20 66 37 71 37 4
0 47 16 95 35 48 19 96 35 107 35 18 1 17 3 -6 16 -29 15 -32 24 -22 62 5 16
12 21 25 17 30 -10 37 41 10 66 -11 11 -21 27 -21 36 0 10 -6 14 -19 10 -23
-6 -32 18 -20 51 13 34 32 27 63 -23 35 -55 67 -61 91 -15 8 16 25 35 38 41
12 7 35 23 50 35 30 25 98 33 127 14z m3360 -41 c0 -46 -40 -79 -54 -44 -3 8
-2 15 2 15 4 0 13 14 19 31 13 33 33 31 33 -2z m-5262 11 c17 0 32 -4 32 -10
0 -5 -13 -10 -29 -10 -40 0 -50 -17 -59 -101 -6 -65 -10 -74 -28 -77 -21 -3
-22 0 -23 104 l-1 107 37 -7 c21 -3 53 -6 71 -6z m-155 -19 c9 -9 -15 -75 -31
-85 -14 -8 -28 18 -35 68 l-6 38 32 -6 c17 -4 35 -10 40 -15z m-158 -36 c0
-33 -3 -40 -19 -40 -26 0 -43 49 -25 71 23 27 44 12 44 -31z m4760 15 c4 -6
10 -41 13 -78 5 -51 11 -68 24 -70 9 -2 19 5 23 17 9 29 25 26 25 -4 0 -14 -4
-25 -10 -25 -15 0 -12 -33 5 -57 14 -20 13 -22 -17 -28 -18 -4 -59 -18 -90
-32 -47 -21 -61 -23 -73 -13 -23 19 -35 79 -28 140 5 46 12 60 43 90 21 19 40
43 43 53 7 19 32 23 42 7z m-6000 -30 c-3 -5 -11 -10 -16 -10 -6 0 -7 5 -4 10
3 6 11 10 16 10 6 0 7 -4 4 -10z m615 0 c0 -5 -13 -10 -30 -10 -16 0 -30 5
-30 10 0 6 14 10 30 10 17 0 30 -4 30 -10z m5660 -18 c0 -25 -34 -73 -43 -61
-2 2 -2 23 1 47 3 33 8 42 23 42 14 0 19 -7 19 -28z m-6105 8 c3 -5 1 -10 -4
-10 -6 0 -11 5 -11 10 0 6 2 10 4 10 3 0 8 -4 11 -10z m8276 -23 c-10 -9 -11
-8 -5 6 3 10 9 15 12 12 3 -3 0 -11 -7 -18z m-3411 1 c0 -16 -41 -58 -57 -58
-19 0 -16 47 5 59 23 14 52 14 52 -1z m442 -39 c41 -29 44 -54 13 -95 -25 -32
-28 -34 -44 -20 -10 9 -27 16 -39 16 -31 0 -101 98 -86 121 10 16 124 0 156
-22z m-3782 -51 c0 -15 -28 -9 -34 8 -11 30 -6 37 14 19 11 -10 20 -22 20 -27z
m2440 23 c0 -5 -9 -11 -20 -14 -20 -5 -26 3 -13 16 9 10 33 8 33 -2z m1023
-13 c15 -12 13 -18 -15 -75 -35 -70 -61 -86 -128 -81 -37 3 -46 8 -62 37 -27
48 -20 73 22 84 19 5 42 15 50 22 27 24 108 31 133 13z m-4611 -70 c-4 -45 -2
-48 20 -48 27 1 78 42 78 64 0 24 33 36 99 36 68 0 84 -20 31 -39 -16 -5 -30
-14 -30 -20 0 -5 -9 -13 -20 -16 -13 -4 -20 -15 -20 -31 0 -13 -4 -24 -10 -24
-5 0 -10 -5 -10 -12 0 -6 9 -3 20 7 32 29 42 9 32 -65 -6 -39 -15 -68 -26 -75
-20 -15 -21 -34 -1 -41 17 -7 21 -34 4 -34 -5 0 -16 15 -24 33 -7 18 -23 41
-34 51 -12 11 -21 27 -21 36 0 18 -35 53 -62 63 -29 10 -45 -18 -52 -92 -7
-67 -9 -71 -44 -93 -20 -12 -40 -24 -43 -26 -12 -6 -21 33 -25 113 -3 44 -9
120 -15 169 -6 56 -6 92 0 95 5 3 42 4 83 1 l73 -5 -3 -47z m5278 46 c0 -17
-22 -14 -28 4 -2 7 3 12 12 12 9 0 16 -7 16 -16z m-5722 -33 c15 -16 34 -39
43 -52 l17 -24 25 24 c33 30 60 22 55 -16 -3 -27 -6 -28 -56 -28 -29 -1 -56 3
-59 8 -9 15 -57 29 -142 41 -50 6 -86 16 -89 24 -2 7 7 12 25 12 15 1 51 9 78
20 67 25 72 24 103 -9z m5642 19 c0 -5 -4 -10 -10 -10 -5 0 -10 5 -10 10 0 6
5 10 10 10 6 0 10 -4 10 -10z m-54 -22 c-9 -12 -16 -27 -16 -31 0 -13 60 0 79
17 9 8 27 16 40 18 27 3 34 -13 44 -99 5 -40 3 -43 -19 -43 -19 0 -24 -5 -24
-24 0 -13 -9 -35 -21 -49 -11 -15 -23 -43 -26 -62 -7 -43 -21 -45 -30 -5 -8
40 -18 45 -32 14 -15 -33 -35 -26 -39 14 -2 24 -8 32 -23 32 -11 0 -22 -8 -25
-17 -3 -10 -10 -26 -15 -35 -5 -10 -9 -27 -9 -38 0 -11 -7 -20 -15 -20 -8 0
-15 9 -15 20 0 31 -14 24 -54 -25 -23 -28 -46 -45 -59 -45 -33 0 -67 -39 -67
-76 0 -24 -10 -43 -42 -76 -24 -24 -53 -62 -65 -84 -30 -54 -109 -215 -116
-236 -8 -23 -27 -23 -27 -2 0 27 41 157 56 179 8 11 14 34 14 52 0 23 8 40 25
55 14 12 25 28 25 36 0 39 57 129 126 199 52 54 74 84 74 102 1 24 14 55 67
149 12 21 38 53 58 70 31 28 43 32 91 32 55 0 55 0 40 -22z m504 12 c0 -5 -5
-10 -11 -10 -5 0 -7 5 -4 10 3 6 8 10 11 10 2 0 4 -4 4 -10z m-2124 -65 c-6
-22 -9 -25 -21 -15 -18 15 -20 47 -2 53 20 7 30 -10 23 -38z m-3085 15 c15 0
17 -7 12 -57 -3 -32 -12 -70 -19 -84 -9 -18 -10 -29 -2 -37 5 -5 7 -15 4 -21
-23 -37 -66 32 -76 122 -5 40 -6 76 -3 80 3 5 19 6 35 3 17 -3 39 -6 49 -6z
m292 -28 c15 -14 27 -34 27 -43 0 -10 5 -21 10 -24 6 -3 10 -15 10 -26 0 -18
11 -25 22 -14 3 3 -1 35 -8 73 -7 37 -11 69 -8 71 9 9 57 -25 67 -47 8 -17 8
-28 -1 -40 -23 -32 -24 -43 -7 -56 16 -11 17 -22 11 -82 -5 -48 -13 -74 -27
-87 -19 -17 -19 -17 -19 23 0 22 -4 40 -10 40 -5 0 -14 17 -21 38 -14 48 -57
99 -91 107 -24 6 -29 3 -40 -21 -7 -16 -13 -47 -14 -69 -5 -93 -9 -110 -24
-110 -12 0 -16 19 -21 90 -3 50 -9 118 -13 152 l-8 62 69 -6 c54 -4 74 -11 96
-31z m561 17 c5 -4 2 -19 -8 -35 -16 -23 -22 -25 -49 -18 -18 4 -51 8 -75 8
-35 0 -48 -5 -78 -35 -38 -38 -40 -46 -28 -126 4 -29 5 -53 2 -53 -3 0 -18 5
-35 10 -42 15 -77 79 -70 128 3 20 9 60 12 87 l7 51 157 -4 c86 -2 160 -8 165
-13z m381 -1 c14 -6 25 -19 25 -28 0 -14 -12 -16 -79 -16 -79 1 -111 -11 -111
-40 0 -8 10 -18 23 -23 12 -5 32 -17 44 -27 13 -11 34 -27 48 -37 30 -22 37
-74 8 -62 -10 4 -30 11 -45 17 -15 5 -30 18 -33 29 -4 11 -16 19 -28 19 -12 1
-33 7 -47 15 -14 8 -37 14 -52 15 -36 0 -41 11 -24 51 15 34 30 47 96 81 40
21 135 24 175 6z m-1915 -118 c0 -5 -7 -10 -15 -10 -8 0 -15 5 -15 10 0 6 7
10 15 10 8 0 15 -4 15 -10z m-39 -34 c12 7 29 -39 22 -64 -3 -11 3 -35 14 -52
l18 -32 -72 -68 c-80 -75 -69 -73 -293 -67 -33 1 -45 -4 -116 -45 -16 -9 -74
-21 -129 -28 -55 -6 -127 -22 -160 -35 -67 -27 -115 -40 -115 -32 0 17 14 37
26 37 8 0 34 18 58 40 24 22 64 47 89 56 25 8 53 24 63 35 9 10 23 19 31 19 8
0 40 12 71 26 31 14 100 40 152 56 52 17 100 34 105 38 6 3 28 12 51 18 23 7
53 23 68 37 15 14 31 25 35 25 5 0 12 11 15 25 6 22 9 23 32 15 14 -6 30 -8
35 -4z m1554 -18 c-11 -36 -27 -47 -52 -37 -16 6 -23 17 -23 34 0 23 4 25 41
25 37 0 40 -2 34 -22z m-861 -80 c20 -28 21 -58 2 -58 -19 0 -47 45 -40 64 8
22 20 20 38 -6z m5150 -64 c26 -25 20 -44 -14 -44 -32 0 -33 2 -24 38 7 26 17
28 38 6z m-4422 -111 c34 -30 23 -46 -28 -40 -56 6 -71 18 -49 41 21 21 53 21
77 -1z m5714 -5 c-3 -13 -6 -27 -7 -33 -1 -12 -17 25 -18 43 -1 6 6 12 15 12
12 0 15 -6 10 -22z m-6406 -43 c21 -11 27 -20 23 -32 -4 -11 5 -25 28 -44 l34
-27 -37 3 c-69 6 -99 25 -63 39 8 3 12 12 9 21 -4 10 -20 15 -50 15 -48 0 -53
6 -26 26 23 18 47 17 82 -1z m600 5 c0 -5 -4 -10 -10 -10 -5 0 -10 5 -10 10 0
6 5 10 10 10 6 0 10 -4 10 -10z m-40 -35 c-7 -9 -15 -13 -17 -11 -7 7 7 26 19
26 6 0 6 -6 -2 -15z m4049 -50 c15 -50 10 -65 -14 -45 -15 13 -22 90 -7 90 4
0 14 -20 21 -45z m-1759 -4 c0 -5 -7 -14 -15 -21 -13 -10 -15 -9 -15 9 0 12 6
21 15 21 8 0 15 -4 15 -9z m-2070 -31 c0 -5 -6 -10 -14 -10 -8 0 -18 5 -21 10
-3 6 3 10 14 10 12 0 21 -4 21 -10z m1318 -27 c-3 -43 -18 -57 -68 -68 -19 -4
-50 -18 -70 -31 -40 -26 -65 -33 -66 -19 -2 27 11 44 35 47 14 2 27 10 27 18
5 45 17 60 48 60 18 0 41 7 52 15 33 25 45 19 42 -22z m704 -45 c-9 -9 -12 -7
-12 12 0 19 3 21 12 12 9 -9 9 -15 0 -24z m1845 0 c-3 -7 -5 -2 -5 12 0 14 2
19 5 13 2 -7 2 -19 0 -25z m2853 -48 c0 -5 -2 -10 -4 -10 -3 0 -8 5 -11 10 -3
6 -1 10 4 10 6 0 11 -4 11 -10z m-1430 -119 c0 -10 -7 -24 -15 -31 -13 -11
-15 -8 -15 19 0 21 5 31 15 31 8 0 15 -8 15 -19z m-5935 -11 c3 -5 1 -10 -4
-10 -6 0 -11 5 -11 10 0 6 2 10 4 10 3 0 8 -4 11 -10z m3985 6 c0 -3 -4 -8
-10 -11 -5 -3 -10 -1 -10 4 0 6 5 11 10 11 6 0 10 -2 10 -4z m-3921 -42 c2 -2
1 -10 -3 -19 -9 -24 -40 -14 -44 14 -3 20 -1 22 20 16 13 -4 25 -9 27 -11z
m6041 -44 c0 -19 -44 -49 -79 -55 -21 -3 -44 -15 -51 -26 -8 -10 -20 -19 -27
-19 -7 0 -21 -8 -31 -17 -10 -10 -37 -31 -60 -47 -24 -16 -46 -35 -50 -41 -9
-15 -42 -27 -42 -15 0 19 58 69 123 106 43 25 67 45 67 56 0 13 8 18 27 18 36
0 63 27 63 62 l0 29 30 -21 c17 -12 30 -25 30 -30z m-6140 -50 c-6 -11 -17
-20 -25 -20 -8 0 -15 -4 -15 -10 0 -12 -40 -34 -48 -26 -9 10 60 76 80 76 16
0 17 -3 8 -20z m1360 -16 c0 -22 76 -19 89 3 5 10 13 15 17 11 4 -4 -2 -20
-12 -35 -10 -15 -35 -59 -55 -98 -20 -38 -42 -71 -48 -73 -18 -6 -43 19 -63
66 -21 47 -16 82 12 82 19 0 34 25 31 52 -2 12 3 16 13 12 9 -3 16 -12 16 -20z
m4216 -26 l42 -42 -22 -17 -21 -17 32 -19 c37 -21 58 -54 50 -78 -13 -32 -36
-26 -108 29 -40 31 -81 56 -91 56 -10 0 -30 -18 -45 -42 -16 -24 -31 -45 -36
-46 -23 -11 -26 -43 -8 -79 11 -21 23 -50 27 -65 10 -45 -14 -33 -39 19 -12
26 -33 52 -47 59 -53 25 -120 43 -125 33 -4 -5 -11 -9 -18 -9 -8 0 -8 3 1 12
7 7 12 24 12 38 0 34 23 65 43 57 8 -3 21 -18 29 -34 10 -22 21 -29 51 -31 29
-3 39 1 44 15 10 28 66 98 100 127 32 27 57 33 68 16 3 -5 12 -10 18 -10 7 1
-1 11 -17 24 -29 24 -28 46 2 46 9 0 35 -19 58 -42z m909 -4 c9 -14 14 -28 11
-31 -7 -7 -66 36 -66 48 0 19 39 8 55 -17z m-2565 -4 c0 -5 -4 -10 -10 -10 -5
0 -10 5 -10 10 0 6 5 10 10 10 6 0 10 -4 10 -10z m-3470 -79 c0 -12 -29 -35
-36 -28 -11 10 5 37 21 37 8 0 15 -4 15 -9z m5230 -1 c0 -5 -7 -10 -15 -10 -8
0 -15 5 -15 10 0 6 7 10 15 10 8 0 15 -4 15 -10z m610 -3 c0 -19 -10 -27 -25
-20 -17 6 -8 33 11 33 8 0 14 -6 14 -13z m-75 -27 c0 -9 -11 -16 -27 -18 -27
-3 -38 14 -21 32 12 12 48 2 48 -14z m355 -10 c0 -21 -15 -27 -25 -10 -7 12 2
30 16 30 5 0 9 -9 9 -20z m-1013 -136 c8 -21 -6 -66 -20 -61 -7 2 -18 17 -26
33 -8 16 -19 32 -24 35 -5 4 -7 14 -4 23 6 15 9 15 37 1 17 -9 34 -23 37 -31z
m-3507 -34 c-25 -22 -50 -40 -55 -40 -6 0 -22 -13 -37 -30 -24 -28 -68 -41
-68 -21 0 10 108 89 155 113 51 26 52 19 5 -22z m3361 -83 c-13 -13 -26 -3
-16 12 3 6 11 8 17 5 6 -4 6 -10 -1 -17z"/>
<path d="M7420 4739 c0 -24 23 -21 28 4 2 10 -3 17 -12 17 -10 0 -16 -9 -16
-21z"/>
<path d="M7410 4669 c0 -5 5 -7 10 -4 6 3 10 8 10 11 0 2 -4 4 -10 4 -5 0 -10
-5 -10 -11z"/>
<path d="M7356 3984 c-15 -38 -8 -44 52 -44 31 0 63 4 71 9 19 12 5 30 -18 24
-10 -3 -32 2 -49 11 -39 20 -48 20 -56 0z"/>
<path d="M8980 3365 c0 -8 5 -15 10 -15 6 0 10 7 10 15 0 8 -4 15 -10 15 -5 0
-10 -7 -10 -15z"/>
<path d="M8635 3311 c-6 -11 33 -26 43 -16 4 3 0 10 -8 15 -19 12 -27 12 -35
1z"/>
<path d="M8360 3179 c0 -5 5 -7 10 -4 6 3 10 8 10 11 0 2 -4 4 -10 4 -5 0 -10
-5 -10 -11z"/>
<path d="M8920 3894 c-14 -7 -29 -15 -35 -18 -13 -4 44 -66 62 -66 15 0 17 16
3 25 -14 9 -12 43 3 48 6 2 17 -3 24 -12 6 -9 15 -12 20 -8 4 5 -3 17 -17 27
-29 22 -27 22 -60 4z"/>
<path d="M8824 3866 c-3 -9 -12 -16 -20 -16 -8 0 -14 -2 -14 -4 0 -12 43 -76
50 -76 16 0 22 21 10 35 -7 8 -10 26 -8 40 6 29 -9 45 -18 21z"/>
<path d="M8738 3803 c7 -3 16 -2 19 1 4 3 -2 6 -13 5 -11 0 -14 -3 -6 -6z"/>
<path d="M8560 3715 c0 -8 9 -15 20 -15 11 0 20 7 20 15 0 8 -9 15 -20 15 -11
0 -20 -7 -20 -15z"/>
<path d="M8718 3723 c7 -3 16 -2 19 1 4 3 -2 6 -13 5 -11 0 -14 -3 -6 -6z"/>
<path d="M8670 3700 c0 -5 5 -10 10 -10 6 0 10 5 10 10 0 6 -4 10 -10 10 -5 0
-10 -4 -10 -10z"/>
<path d="M8485 3670 c-3 -5 -2 -10 4 -10 5 0 13 5 16 10 3 6 2 10 -4 10 -5 0
-13 -4 -16 -10z"/>
<path d="M8525 3609 c-4 -6 -5 -13 -2 -16 7 -7 27 6 27 18 0 12 -17 12 -25 -2z"/>
<path d="M2292 4078 c5 -15 28 -18 29 -3 0 6 -7 12 -17 13 -10 3 -15 -1 -12
-10z"/>
<path d="M4890 3240 c0 -5 5 -10 10 -10 6 0 10 5 10 10 0 6 -4 10 -10 10 -5 0
-10 -4 -10 -10z"/>
<path d="M7535 3680 c3 -5 8 -10 11 -10 2 0 4 5 4 10 0 6 -5 10 -11 10 -5 0
-7 -4 -4 -10z"/>
<path d="M7980 3220 c0 -5 5 -10 10 -10 6 0 10 5 10 10 0 6 -4 10 -10 10 -5 0
-10 -4 -10 -10z"/>
<path d="M6032 2998 c2 -6 10 -14 16 -16 7 -2 10 2 6 12 -7 18 -28 22 -22 4z"/>
<path d="M9150 2976 c-43 -16 -50 -22 -32 -24 13 -2 29 1 36 7 7 6 34 14 60
17 26 4 49 11 52 15 10 16 -60 7 -116 -15z"/>
<path d="M5120 2998 c0 -7 7 -22 15 -32 12 -16 15 -17 15 -4 0 24 -11 48 -21
48 -5 0 -9 -6 -9 -12z"/>
<path d="M6500 3001 c0 -6 5 -13 10 -16 6 -3 10 1 10 9 0 9 -4 16 -10 16 -5 0
-10 -4 -10 -9z"/>
<path d="M6450 2931 c0 -5 5 -13 10 -16 6 -3 10 -2 10 4 0 5 -4 13 -10 16 -5
3 -10 2 -10 -4z"/>
<path d="M2625 2820 c-8 -12 20 -24 35 -15 6 3 8 11 5 16 -8 12 -32 12 -40 -1z"/>
<path d="M6458 2256 c-10 -7 -18 -25 -18 -40 0 -26 0 -26 25 -10 15 10 25 26
25 40 0 27 -7 29 -32 10z"/>
<path d="M2315 2160 c3 -5 8 -10 11 -10 2 0 4 5 4 10 0 6 -5 10 -11 10 -5 0
-7 -4 -4 -10z"/>
<path d="M9319 6239 c-26 -4 -56 -12 -68 -19 -12 -6 -30 -9 -40 -5 -19 6 -59
-30 -47 -42 4 -4 38 -6 77 -4 71 2 138 31 139 58 0 18 -11 20 -61 12z"/>
<path d="M8960 6161 c0 -11 9 -21 22 -25 33 -8 43 9 17 28 -30 21 -39 20 -39
-3z"/>
<path d="M4546 5780 c11 -73 21 -90 49 -90 14 0 25 4 25 8 0 8 -62 107 -75
120 -3 3 -3 -14 1 -38z"/>
<path d="M7080 5801 c0 -12 5 -21 10 -21 6 0 10 6 10 14 0 8 -4 18 -10 21 -5
3 -10 -3 -10 -14z"/>
<path d="M4094 5679 c-9 -15 12 -33 30 -26 9 4 16 13 16 22 0 17 -35 21 -46 4z"/>
<path d="M4551 5637 c-15 -38 -14 -47 5 -68 10 -11 18 -44 21 -84 6 -64 6 -65
35 -65 16 0 39 5 51 12 12 6 36 14 52 18 21 4 30 12 30 25 0 17 -8 19 -69 20
-77 0 -95 14 -49 38 l28 15 -35 9 c-31 9 -35 13 -32 39 1 16 -4 38 -12 49 -14
19 -15 19 -25 -8z"/>
<path d="M7320 5634 c0 -8 5 -12 10 -9 6 3 10 10 10 16 0 5 -4 9 -10 9 -5 0
-10 -7 -10 -16z"/>
<path d="M4217 5613 c-12 -12 -7 -53 10 -86 9 -18 16 -37 15 -44 -1 -6 11 -21
28 -33 16 -12 30 -18 31 -13 4 32 -6 70 -22 81 -11 8 -19 25 -19 42 0 50 -21
76 -43 53z"/>
<path d="M4057 5602 c-13 -3 -16 -8 -11 -20 5 -10 8 -36 9 -59 0 -49 6 -57 38
-50 19 5 23 14 25 45 3 44 -31 90 -61 84z"/>
<path d="M3988 5573 c7 -3 16 -2 19 1 4 3 -2 6 -13 5 -11 0 -14 -3 -6 -6z"/>
<path d="M6800 5560 c-13 -8 -13 -12 3 -27 14 -15 21 -16 37 -5 11 6 27 12 35
12 8 0 15 5 15 10 0 17 -31 24 -40 10 -6 -10 -12 -11 -22 -2 -9 7 -19 7 -28 2z"/>
<path d="M5040 5538 c0 -9 5 -20 10 -23 13 -8 13 5 0 25 -8 13 -10 13 -10 -2z"/>
<path d="M5045 5490 c-11 -4 -31 -19 -44 -34 -20 -21 -22 -28 -11 -41 16 -19
39 -19 46 -1 3 8 19 20 35 26 52 22 26 70 -26 50z"/>
<path d="M6665 5490 c3 -5 8 -10 11 -10 2 0 4 5 4 10 0 6 -5 10 -11 10 -5 0
-7 -4 -4 -10z"/>
<path d="M4800 5410 c0 -39 1 -40 28 -34 50 12 54 22 20 54 -34 31 -48 26 -48
-20z"/>
<path d="M5490 5420 c-14 -3 -26 -14 -28 -23 -3 -15 1 -17 23 -11 24 6 26 4
23 -17 -2 -16 4 -27 19 -34 13 -7 32 -20 44 -30 28 -26 55 -9 51 31 -5 42 -27
62 -52 46 -32 -20 -48 -14 -52 16 -3 24 -6 27 -28 22z"/>
<path d="M6340 5410 c-9 -17 -8 -20 9 -20 16 0 31 18 31 36 0 13 -31 1 -40
-16z"/>
<path d="M5677 5414 c-8 -8 3 -34 14 -34 5 0 9 9 9 20 0 19 -11 26 -23 14z"/>
<path d="M5868 5398 c-6 -18 21 -58 39 -58 10 0 13 9 11 33 -2 24 -8 33 -24
35 -12 2 -24 -3 -26 -10z"/>
<path d="M4650 5383 c-13 -3 -33 -11 -44 -19 -11 -8 -33 -14 -49 -14 -15 0
-43 -6 -61 -14 -30 -13 -34 -19 -40 -67 -3 -30 -9 -72 -12 -95 -4 -31 2 -60
26 -125 36 -93 54 -119 71 -102 7 7 2 36 -21 102 -37 107 -35 144 7 139 22 -3
28 -11 40 -57 7 -30 17 -59 22 -65 5 -6 15 -30 22 -53 6 -24 14 -43 16 -43 2
0 35 7 73 16 73 16 94 30 63 41 -10 4 -28 17 -40 30 -29 30 -41 29 -45 -3 l-3
-27 -31 29 c-42 39 -54 107 -24 139 11 12 20 35 20 51 0 31 15 54 36 54 19 0
62 43 66 65 2 17 -3 20 -32 21 -19 1 -46 0 -60 -3z"/>
<path d="M6275 5379 c-4 -6 -5 -12 -3 -14 7 -7 48 7 48 16 0 13 -37 11 -45 -2z"/>
<path d="M5102 5353 c4 -24 23 -27 25 -3 1 12 -4 20 -13 20 -9 0 -14 -7 -12
-17z"/>
<path d="M4810 5308 c0 -29 28 -71 71 -108 31 -27 32 -29 12 -30 -42 0 -33
-19 21 -44 69 -33 76 -33 76 4 0 54 55 25 62 -33 4 -35 22 -40 26 -8 l4 24 12
-24 c6 -13 18 -24 26 -24 24 0 24 42 0 62 -12 10 -26 28 -31 41 -5 14 -20 25
-40 29 -17 3 -33 12 -36 19 -3 8 -18 14 -33 14 -30 0 -46 14 -52 45 -3 16 -11
19 -36 17 -23 -1 -35 4 -44 18 -17 27 -38 25 -38 -2z"/>
<path d="M4305 5285 c-53 -20 -239 -65 -267 -65 -28 -1 -76 -43 -106 -94 l-23
-39 25 -26 c32 -33 33 -67 5 -90 l-22 -17 30 -13 c17 -7 35 -23 41 -37 15 -31
32 -30 62 1 13 14 18 25 12 25 -7 0 -12 9 -12 20 0 12 -11 43 -25 70 -17 34
-25 65 -25 102 0 29 4 48 8 42 4 -6 17 -14 29 -18 16 -5 25 -2 33 14 9 16 15
18 30 10 11 -6 20 -21 20 -33 0 -35 23 -61 48 -55 12 3 29 0 38 -7 16 -12 44
-78 63 -150 4 -17 14 -41 20 -54 l13 -23 21 20 c15 16 18 24 9 34 -6 8 -25 49
-41 93 -33 84 -40 145 -18 145 23 0 55 -29 62 -57 l8 -28 12 30 c17 38 39 190
30 204 -8 15 -32 13 -80 -4z"/>
<path d="M5497 5258 c10 -47 13 -52 25 -40 14 14 2 62 -16 62 -9 0 -12 -8 -9
-22z"/>
<path d="M221 5186 c-14 -17 2 -31 46 -39 18 -4 66 -22 107 -41 42 -20 86 -38
100 -42 14 -3 30 -12 36 -19 6 -8 18 -11 26 -8 17 6 19 33 2 33 -7 0 -40 14
-72 30 -32 17 -67 30 -77 30 -10 0 -21 5 -24 10 -3 6 -17 10 -29 10 -13 0 -35
11 -50 25 -30 28 -48 31 -65 11z"/>
<path d="M4686 5145 c-10 -7 -16 -18 -15 -24 2 -5 14 1 26 14 24 27 18 32 -11
10z"/>
<path d="M3692 5011 c-11 -6 -10 -10 4 -15 20 -8 32 0 18 14 -5 5 -15 5 -22 1z"/>
<path d="M1 4906 c1 -55 4 -91 6 -78 2 12 5 22 6 22 1 0 22 -6 47 -14 25 -7
88 -14 141 -14 102 -1 228 -26 334 -67 33 -13 78 -27 100 -30 22 -4 72 -18
112 -31 39 -13 81 -24 94 -24 25 0 157 -46 176 -62 7 -5 29 -11 49 -13 20 -2
52 -11 71 -20 21 -10 64 -17 111 -18 67 -2 77 0 80 16 6 32 -29 53 -99 60 -36
3 -93 15 -126 27 -33 11 -93 27 -134 35 -81 15 -268 64 -339 89 -25 8 -97 29
-160 47 -141 39 -200 59 -200 70 0 4 -10 11 -22 15 -12 3 -56 22 -97 42 -42
20 -93 39 -113 42 l-38 7 1 -101z"/>
<path d="M4410 4923 c0 -33 2 -36 15 -23 8 9 12 24 9 38 -10 35 -24 26 -24
-15z"/>
<path d="M4080 4920 c0 -6 7 -10 15 -10 8 0 15 2 15 4 0 2 -7 6 -15 10 -8 3
-15 1 -15 -4z"/>
<path d="M3691 4901 c-30 -23 -20 -42 17 -32 17 5 27 14 27 26 0 26 -16 28
-44 6z"/>
<path d="M3860 4850 c-13 -8 -13 -10 2 -10 9 0 20 5 23 10 8 13 -5 13 -25 0z"/>
<path d="M4068 4853 c-29 -7 -20 -23 13 -23 19 0 29 4 27 12 -5 14 -17 17 -40
11z"/>
<path d="M3959 4809 c-12 -8 -11 -12 5 -24 25 -19 46 -19 46 0 0 20 -33 36
-51 24z"/>
<path d="M3735 4800 c3 -5 10 -10 16 -10 5 0 9 5 9 10 0 6 -7 10 -16 10 -8 0
-12 -4 -9 -10z"/>
<path d="M4255 4780 c-10 -11 -24 -20 -30 -20 -7 0 -18 -7 -26 -16 -10 -13
-10 -21 3 -47 8 -18 22 -65 29 -106 16 -86 39 -108 39 -37 0 25 5 57 12 71 8
19 8 31 -1 51 -10 23 -9 29 9 46 24 22 23 20 8 53 -14 30 -19 31 -43 5z"/>
<path d="M3850 4771 c-19 -10 -53 -24 -75 -30 -22 -7 -53 -19 -70 -26 -16 -7
-46 -16 -65 -20 -54 -11 -69 -29 -59 -70 5 -19 13 -51 18 -70 12 -47 27 -64
52 -58 14 4 18 1 13 -10 -3 -8 -1 -18 5 -22 7 -4 11 3 11 17 1 33 35 70 73 77
23 5 33 13 35 29 2 12 8 22 13 22 17 0 22 -30 10 -53 -7 -13 -10 -50 -8 -93 4
-64 2 -72 -17 -84 -11 -8 -24 -13 -28 -12 -11 3 -48 -35 -48 -49 0 -7 7 -8 18
-4 9 5 33 10 52 12 73 7 140 27 156 45 23 24 56 23 80 -3 15 -17 27 -20 58
-16 49 7 65 21 49 46 -7 10 -9 28 -6 40 3 12 0 28 -7 36 -8 10 -11 31 -6 61 4
34 2 46 -9 50 -19 8 -20 24 -2 24 13 0 37 39 37 59 0 15 -60 18 -71 4 -18 -21
-70 -17 -76 6 -3 12 -11 17 -19 14 -7 -3 -21 3 -30 12 -14 14 -15 21 -6 36 29
45 -17 63 -78 30z m-60 -85 c0 -9 -30 -14 -35 -6 -4 6 3 10 14 10 12 0 21 -2
21 -4z m50 -41 c0 -9 -9 -15 -25 -15 -24 0 -32 10 -18 23 12 13 43 7 43 -8z
m-60 -25 c0 -5 -4 -10 -10 -10 -5 0 -10 5 -10 10 0 6 5 10 10 10 6 0 10 -4 10
-10z"/>
<path d="M3996 4725 c-3 -8 -1 -15 4 -15 13 0 22 18 11 24 -5 3 -11 -1 -15 -9z"/>
<path d="M2057 4504 c-6 -7 13 -54 22 -54 3 0 12 10 20 21 11 18 11 23 -1 30
-15 10 -32 11 -41 3z"/>
<path d="M1857 4493 c-12 -11 -8 -40 7 -52 12 -10 17 -8 26 9 16 29 -12 65
-33 43z"/>
<path d="M3447 4483 c-33 -4 -38 -7 -35 -26 3 -24 40 -34 84 -23 27 7 33 40 8
50 -9 3 -16 5 -17 4 -1 -1 -19 -3 -40 -5z"/>
<path d="M4636 4405 c-3 -8 -1 -15 4 -15 6 0 10 7 10 15 0 8 -2 15 -4 15 -2 0
-6 -7 -10 -15z"/>
<path d="M4175 4400 c3 -5 8 -10 11 -10 2 0 4 5 4 10 0 6 -5 10 -11 10 -5 0
-7 -4 -4 -10z"/>
<path d="M437 4333 c-21 -20 11 -112 34 -98 5 4 9 28 9 56 0 41 -3 49 -18 49
-10 0 -22 -3 -25 -7z"/>
<path d="M4178 4327 c-38 -15 -41 -32 -11 -52 21 -14 27 -15 39 -3 16 16 23
60 9 63 -5 2 -22 -2 -37 -8z"/>
<path d="M961 4291 c-12 -7 -12 -13 -3 -24 16 -19 5 -27 -28 -20 -19 3 -42 -3
-71 -20 -151 -86 -198 -103 -214 -77 -14 22 -25 8 -25 -32 1 -52 15 -72 55
-76 45 -4 96 7 94 21 -4 32 2 38 31 33 25 -3 30 -1 30 15 0 25 29 35 107 38
68 2 98 -15 105 -61 2 -17 10 -23 28 -23 32 0 38 -27 11 -54 -18 -18 -34 -21
-100 -21 -44 0 -82 -3 -84 -7 -3 -5 -1 -17 3 -28 6 -16 14 -19 46 -16 21 1 51
9 65 17 29 15 39 9 53 -31 7 -19 8 -19 21 5 8 14 14 35 15 48 0 13 15 35 35
53 47 42 46 72 -3 103 -32 20 -40 32 -52 79 -12 51 -16 56 -54 71 -48 19 -47
18 -65 7z"/>
<path d="M3815 4290 c-3 -5 -2 -10 4 -10 5 0 13 5 16 10 3 6 2 10 -4 10 -5 0
-13 -4 -16 -10z"/>
<path d="M4048 4273 c-9 -2 -19 -11 -22 -19 -5 -12 1 -15 26 -12 22 2 34 9 36
21 3 17 -6 19 -40 10z"/>
<path d="M3710 4260 c0 -5 9 -10 21 -10 11 0 17 5 14 10 -3 6 -13 10 -21 10
-8 0 -14 -4 -14 -10z"/>
<path d="M3650 4225 c0 -8 5 -15 10 -15 6 0 10 7 10 15 0 8 -4 15 -10 15 -5 0
-10 -7 -10 -15z"/>
<path d="M4160 4175 c0 -24 5 -35 14 -35 21 0 29 17 22 46 -10 38 -36 30 -36
-11z"/>
<path d="M1644 4187 c-6 -18 28 -125 57 -175 10 -18 19 -39 19 -47 0 -20 36
-37 60 -30 23 7 27 43 5 51 -17 7 -55 87 -55 116 0 11 -18 38 -40 60 -31 32
-41 37 -46 25z"/>
<path d="M4270 4165 c0 -8 5 -15 10 -15 6 0 10 7 10 15 0 8 -4 15 -10 15 -5 0
-10 -7 -10 -15z"/>
<path d="M3637 4153 c-4 -3 -7 -12 -7 -20 0 -15 26 -18 34 -4 7 11 -18 33 -27
24z"/>
<path d="M3954 4135 c-19 -15 -19 -15 0 -30 28 -21 36 -19 36 9 0 32 -12 39
-36 21z"/>
<path d="M4695 4121 c-3 -2 -5 -13 -5 -23 0 -16 6 -19 33 -16 25 2 33 8 35 26
3 20 0 22 -28 20 -17 -1 -33 -4 -35 -7z"/>
<path d="M3813 4093 c-21 -4 -39 -30 -28 -42 3 -3 15 0 25 7 11 7 25 12 31 12
6 0 17 7 25 15 14 13 13 15 -8 14 -13 -1 -33 -4 -45 -6z"/>
<path d="M788 4053 c7 -3 16 -2 19 1 4 3 -2 6 -13 5 -11 0 -14 -3 -6 -6z"/>
<path d="M4895 4040 c-7 -23 2 -43 16 -35 12 8 12 55 0 55 -5 0 -12 -9 -16
-20z"/>
<path d="M4000 4031 c0 -5 7 -12 16 -15 22 -9 24 -8 24 9 0 8 -9 15 -20 15
-11 0 -20 -4 -20 -9z"/>
<path d="M3996 3898 c-47 -39 -48 -61 -2 -53 20 4 36 2 40 -4 8 -13 46 -15 46
-2 0 4 11 20 25 35 33 35 24 51 -29 52 -36 1 -52 -5 -80 -28z"/>
<path d="M1081 3874 c0 -11 3 -14 6 -6 3 7 2 16 -1 19 -3 4 -6 -2 -5 -13z"/>
<path d="M3765 3788 c3 -13 10 -36 14 -53 l7 -30 85 3 c46 2 88 7 94 10 5 3
28 5 52 3 38 -2 43 0 43 19 0 11 -8 23 -17 26 -10 3 -26 10 -35 15 -27 14 -37
11 -66 -20 -29 -31 -55 -39 -87 -26 -28 11 -65 46 -65 62 0 7 -7 13 -16 13
-12 0 -15 -6 -9 -22z"/>
</g>
</svg>
