<?xml version="1.0" standalone="no"?>
<!DOCTYPE svg PUBLIC "-//W3C//DTD SVG 20010904//EN"
 "http://www.w3.org/TR/2001/REC-SVG-20010904/DTD/svg10.dtd">
<svg version="1.0" xmlns="http://www.w3.org/2000/svg"
 width="220.000000pt" height="290.000000pt" viewBox="0 0 220.000000 290.000000"
 preserveAspectRatio="xMidYMid meet">

<g transform="translate(0.000000,290.000000) scale(0.100000,-0.100000)"
fill="#000000" stroke="none">
<path d="M0 1450 l0 -1450 1100 0 1100 0 0 1450 0 1450 -1100 0 -1100 0 0
-1450z m857 898 c-3 -8 -6 -5 -6 6 -1 11 2 17 5 13 3 -3 4 -12 1 -19z m190 0
c-3 -8 -6 -5 -6 6 -1 11 2 17 5 13 3 -3 4 -12 1 -19z m441 -8 c1 -16 -3 -30
-9 -30 -6 0 -17 -7 -25 -15 -19 -19 -44 -19 -44 -1 0 7 7 27 16 42 l16 29 -5
-28 c-3 -22 -1 -27 10 -23 8 3 17 6 19 6 2 0 4 11 4 25 0 35 15 31 18 -5z
m-656 -15 c22 -28 41 -33 31 -9 -4 12 -2 15 8 12 8 -2 15 -14 17 -26 3 -16 -2
-22 -17 -22 -11 0 -24 7 -29 16 -6 11 -17 15 -29 12 -16 -4 -19 -1 -15 18 5
30 9 30 34 -1z m332 -16 c-8 -13 -24 -1 -24 18 0 13 3 13 15 3 8 -7 12 -16 9
-21z m476 -41 c0 -29 -4 -48 -8 -41 -7 12 -4 93 4 93 2 0 4 -24 4 -52z m-701
23 c7 -5 12 -13 10 -19 -2 -6 -14 -2 -28 9 -23 19 -9 27 18 10z m451 -6 c-7
-8 -19 -15 -27 -15 -13 0 -13 3 -3 15 7 8 19 15 27 15 13 0 13 -3 3 -15z
m-210 -63 c0 -12 -3 -12 -15 -2 -8 7 -15 22 -15 34 1 21 1 21 15 2 8 -11 15
-26 15 -34z m130 23 c-7 -8 -24 -15 -38 -15 -31 0 -18 16 18 23 14 2 27 5 29
6 2 0 -2 -6 -9 -14z m-255 -5 c17 -7 16 -9 -10 -9 -16 0 -37 4 -45 9 -12 8
-10 10 10 9 14 0 34 -4 45 -9z m-654 -27 c-12 -20 -14 -14 -5 12 4 9 9 14 11
11 3 -2 0 -13 -6 -23z m379 19 c0 -5 -20 -9 -45 -9 -25 -1 -45 3 -45 8 0 5 20
9 45 9 25 0 45 -4 45 -8z m685 -9 c-8 -20 -13 -46 -14 -80 -1 -16 -6 -20 -21
-16 -11 3 -20 7 -20 10 0 16 44 103 52 103 6 0 7 -8 3 -17z m208 -3 c-6 -21
-25 -28 -20 -7 2 10 16 26 24 27 0 0 -1 -9 -4 -20z m-813 -30 c0 -13 -1 -13
-10 0 -5 8 -10 22 -10 30 0 13 1 13 10 0 5 -8 10 -22 10 -30z m560 21 c0 -4
-7 -16 -16 -27 -8 -10 -12 -13 -8 -5 5 9 3 12 -4 7 -8 -5 -10 -21 -6 -45 5
-33 3 -39 -14 -43 -37 -10 -43 11 -16 63 17 34 28 47 39 43 11 -5 13 -2 8 12
-4 12 -3 15 5 10 7 -4 12 -11 12 -15z m420 9 c0 -5 -5 -10 -11 -10 -5 0 -7 5
-4 10 3 6 8 10 11 10 2 0 4 -4 4 -10z m-1170 -21 c0 -12 -8 -23 -19 -26 -13
-3 -18 -11 -14 -21 4 -12 3 -14 -4 -7 -6 6 -9 25 -6 43 6 38 43 48 43 11z
m523 -21 c3 -10 1 -18 -3 -18 -5 0 -15 -3 -24 -6 -9 -3 -16 -1 -16 6 0 6 5 8
12 4 7 -5 8 -3 3 5 -4 7 -16 11 -26 8 -17 -5 -17 -3 -3 19 13 19 19 21 34 12
10 -7 21 -20 23 -30z m357 27 c0 -19 -11 -19 -36 0 -18 14 -18 14 9 15 17 0
27 -5 27 -15z m-615 -26 c9 -17 14 -33 11 -36 -4 -4 -36 49 -36 62 0 13 11 2
25 -26z m1057 9 c-3 -14 -2 -19 6 -14 19 12 14 -2 -10 -26 l-21 -21 6 24 c4
13 7 32 7 42 0 9 4 17 9 17 5 0 7 -10 3 -22z m-1566 -25 c-11 -11 -17 4 -9 23
7 18 8 18 11 1 2 -10 1 -21 -2 -24z m44 16 c0 -5 -4 -9 -10 -9 -5 0 -10 7 -10
16 0 8 5 12 10 9 6 -3 10 -10 10 -16z m90 11 c0 -9 -36 -50 -44 -50 -7 0 -15
43 -10 52 7 12 54 10 54 -2z m776 -22 c2 -14 -1 -14 -27 -1 -36 18 -36 19 -2
17 15 0 27 -7 29 -16z m-301 2 c3 -5 -1 -10 -9 -10 -9 0 -16 5 -16 10 0 6 4
10 9 10 6 0 13 -4 16 -10z m1015 -11 c0 -5 -7 -9 -15 -9 -9 0 -12 6 -9 15 6
15 24 11 24 -6z m-560 7 c0 -3 -4 -8 -10 -11 -5 -3 -10 -1 -10 4 0 6 5 11 10
11 6 0 10 -2 10 -4z m43 -16 c-3 -12 -8 -19 -11 -16 -5 6 5 36 12 36 2 0 2 -9
-1 -20z m67 16 c0 -3 -4 -8 -10 -11 -5 -3 -10 -1 -10 4 0 6 5 11 10 11 6 0 10
-2 10 -4z m48 -16 c-14 -22 -24 -19 -15 5 4 8 11 15 17 15 6 0 6 -7 -2 -20z
m62 10 c0 -5 -5 -10 -11 -10 -5 0 -7 5 -4 10 3 6 8 10 11 10 2 0 4 -4 4 -10z
m53 -10 c-3 -11 -9 -20 -14 -20 -11 0 -11 3 -3 24 9 23 23 20 17 -4z m62 10
c-3 -5 -11 -10 -16 -10 -6 0 -7 5 -4 10 3 6 11 10 16 10 6 0 7 -4 4 -10z m46
-17 c-8 -15 -10 -15 -11 -2 0 17 10 32 18 25 2 -3 -1 -13 -7 -23z m69 17 c0
-5 -8 -10 -17 -10 -15 0 -16 2 -3 10 19 12 20 12 20 0z m164 -15 c-4 -8 -9
-15 -13 -15 -4 0 -8 7 -8 15 0 8 6 15 13 15 8 0 11 -6 8 -15z m-1169 -35 c3
-5 -1 -10 -9 -10 -9 0 -16 5 -16 10 0 6 4 10 9 10 6 0 13 -4 16 -10z m370 -20
c-28 -12 -65 -12 -65 0 0 6 19 10 43 9 32 0 37 -2 22 -9z m-107 -27 c7 -12 17
-14 41 -10 17 4 31 5 31 3 0 -1 -12 -13 -27 -27 -14 -13 -23 -18 -18 -10 6 11
3 13 -16 7 -13 -4 -29 -8 -36 -8 -7 -1 -10 -5 -7 -10 12 -19 -34 -1 -75 29 -6
4 31 32 42 33 5 0 5 -5 1 -12 -4 -6 3 -4 17 5 29 21 36 21 47 0z m-138 -13
c13 -8 13 -10 -2 -10 -9 0 -20 5 -23 10 -8 13 5 13 25 0z m313 -17 c-29 -15
-113 -18 -113 -4 0 13 13 16 80 17 54 0 56 -1 33 -13z m-343 -3 c20 -7 15 -8
-22 -7 -26 0 -45 4 -42 9 6 10 30 9 64 -2z m180 -23 c0 -2 -15 -16 -32 -33
l-33 -29 29 33 c28 30 36 37 36 29z m-167 -24 c-7 -2 -21 -2 -30 0 -10 3 -4 5
12 5 17 0 24 -2 18 -5z m245 0 c-10 -2 -26 -2 -35 0 -10 3 -2 5 17 5 19 0 27
-2 18 -5z m19 -36 c-2 -6 -32 -20 -67 -32 -35 -12 -66 -27 -68 -34 -3 -8 4
-10 21 -6 14 4 28 2 32 -5 5 -8 11 -6 19 6 7 9 25 18 39 20 21 2 27 -2 27 -16
0 -22 -51 -133 -62 -138 -5 -2 -8 -11 -8 -21 0 -9 -7 -26 -15 -38 -10 -15 -13
-32 -9 -50 4 -15 3 -25 -1 -21 -4 4 -13 1 -21 -6 -20 -21 -64 -8 -63 18 0 11
3 15 6 9 2 -7 11 -13 19 -13 8 0 14 6 15 13 1 6 2 21 3 32 0 12 9 21 23 23 13
2 21 10 20 21 -1 16 -17 22 -74 24 -13 1 -23 7 -23 15 0 7 5 10 10 7 6 -4 18
-4 26 -1 12 5 10 11 -13 31 l-28 25 26 -6 c15 -3 30 -1 33 5 4 6 1 9 -7 5 -18
-6 -21 87 -4 109 12 16 126 48 140 40 4 -3 6 -10 4 -16z m-7 -158 c-12 -23
-24 -38 -27 -35 -5 5 35 76 43 76 2 0 -5 -18 -16 -41z m-780 21 c0 -5 9 -10
20 -10 26 0 26 -17 0 -25 -11 -4 -18 -11 -15 -16 4 -5 -12 -9 -35 -9 -27 0
-48 -7 -62 -20 -24 -22 -38 -26 -38 -9 0 5 -4 7 -10 4 -6 -4 -3 -16 6 -31 18
-27 14 -40 -11 -31 -8 4 -15 17 -16 29 0 13 -3 17 -6 11 -7 -20 -19 -15 -31
12 -25 54 -9 74 54 75 12 0 27 7 34 15 14 17 110 21 110 5z m510 -44 c0 -12
-5 -7 -19 24 -11 24 -11 24 3 6 9 -11 16 -24 16 -30z m687 22 c-3 -8 -6 -5 -6
6 -1 11 2 17 5 13 3 -3 4 -12 1 -19z m209 -15 c16 -13 24 -22 17 -18 -9 4 -11
-3 -8 -24 3 -30 3 -30 -21 -15 -13 9 -24 21 -24 28 0 6 -5 4 -10 -4 -6 -9 -10
-11 -10 -3 0 8 -7 10 -17 6 -16 -6 -16 -5 -4 10 12 15 12 19 -3 30 -14 10 -11
12 17 14 23 1 43 -7 63 -24z m-1156 -38 c1 19 2 19 12 -2 20 -41 1 -88 -51
-132 -61 -51 -82 -110 -60 -169 14 -34 13 -42 -8 -97 -12 -33 -22 -54 -22 -47
-1 7 -5 10 -11 7 -13 -8 -13 -5 6 46 14 40 14 48 -2 95 -17 49 -16 54 2 110
17 52 24 61 61 78 50 24 66 52 52 98 -14 50 -9 79 6 33 8 -25 14 -33 15 -20z
m1026 29 c-4 -9 -9 -15 -11 -12 -3 3 -3 13 1 22 4 9 9 15 11 12 3 -3 3 -13 -1
-22z m-686 -13 c0 -5 -9 -7 -20 -4 -11 3 -20 7 -20 9 0 2 9 4 20 4 11 0 20 -4
20 -9z m230 -41 c-7 -17 -14 -29 -16 -27 -2 2 1 18 7 36 6 18 14 30 17 27 2
-3 -1 -19 -8 -36z m-757 23 c-7 -2 -19 -2 -25 0 -7 3 -2 5 12 5 14 0 19 -2 13
-5z m694 -25 c-3 -7 -5 -2 -5 12 0 14 2 19 5 13 2 -7 2 -19 0 -25z m523 12 c0
-11 -4 -20 -9 -20 -5 0 -7 9 -4 20 3 11 7 20 9 20 2 0 4 -9 4 -20z m174 11 c3
-5 -1 -11 -9 -14 -9 -4 -12 -1 -8 9 6 16 10 17 17 5z m-247 -63 c-2 -13 -4 -3
-4 22 0 25 2 35 4 23 2 -13 2 -33 0 -45z m-102 -19 c-4 -16 4 -46 19 -79 14
-30 33 -88 42 -130 30 -143 51 -205 67 -204 15 1 17 -12 4 -33 -12 -20 -38
-16 -30 4 4 10 2 14 -4 10 -5 -4 -21 42 -37 111 -34 139 -60 225 -85 272 -17
32 -18 37 -3 67 18 38 36 26 27 -18z m-485 21 c0 -5 -4 -10 -10 -10 -5 0 -10
5 -10 10 0 6 5 10 10 10 6 0 10 -4 10 -10z m308 -28 c-2 -8 -10 -17 -18 -19
-13 -4 -13 -3 0 7 11 9 12 13 3 17 -19 7 -16 23 2 16 9 -3 15 -12 13 -21z
m352 8 c0 -11 -4 -20 -9 -20 -5 0 -7 9 -4 20 3 11 7 20 9 20 2 0 4 -9 4 -20z
m-1200 -21 c0 -15 -5 -19 -15 -15 -11 4 -15 -1 -15 -19 0 -31 23 -33 43 -2 21
32 31 15 14 -25 -21 -46 -31 -80 -29 -98 1 -8 -4 -5 -11 8 -7 12 -16 20 -19
17 -3 -4 -9 -2 -13 4 -3 6 -1 11 6 11 7 0 10 2 7 5 -2 3 -39 -2 -82 -10 -43
-8 -85 -15 -94 -15 -29 1 7 15 69 29 61 13 71 31 38 69 -11 13 -14 24 -8 33 7
12 9 11 9 -1 0 -12 2 -12 9 -1 5 7 23 14 40 16 17 1 34 5 38 9 10 10 13 7 13
-15z m1335 -19 c2 -12 -8 -44 -26 -75 -23 -41 -34 -52 -47 -48 -14 6 -15 4 -5
-9 12 -13 9 -14 -22 -4 l-34 11 24 13 c29 15 33 26 6 17 -14 -4 -18 -1 -17 17
1 13 -2 25 -6 28 -4 3 -3 19 1 35 5 17 10 23 10 16 1 -11 4 -12 12 -4 9 9 19
9 39 -2 14 -7 32 -10 39 -6 10 6 8 10 -6 16 -17 7 -17 8 2 15 24 9 24 9 30
-20z m-639 -25 c0 -19 -5 -36 -11 -39 -11 -4 -11 25 0 62 7 20 10 14 11 -23z
m101 28 c-4 -3 0 -11 8 -17 12 -10 12 -14 -1 -31 -13 -17 -16 -18 -25 -5 -8
11 -9 9 -4 -9 5 -16 4 -21 -4 -17 -6 4 -11 1 -12 -6 0 -7 -5 -3 -11 9 -9 18
-6 27 13 52 13 16 28 30 33 30 5 1 6 -2 3 -6z m-912 -32 c-6 -5 -25 10 -25 20
0 5 6 4 14 -3 8 -7 12 -15 11 -17z m572 -28 c-3 -10 -5 -4 -5 12 0 17 2 24 5
18 2 -7 2 -21 0 -30z m-552 7 c3 -5 1 -10 -4 -10 -6 0 -11 5 -11 10 0 6 2 10
4 10 3 0 8 -4 11 -10z m519 -38 c11 -11 27 -17 34 -15 6 3 12 0 12 -7 0 -6 -5
-8 -12 -4 -8 5 -9 0 -5 -15 4 -18 3 -20 -8 -11 -23 19 -39 1 -19 -21 15 -16
15 -19 2 -19 -9 0 -23 12 -33 26 -9 15 -12 23 -6 20 6 -4 18 -1 26 8 17 17 20
30 5 21 -5 -3 -10 -2 -10 3 0 6 -9 8 -20 5 -14 -4 -20 0 -20 11 0 9 -5 16 -11
16 -5 0 -7 -5 -3 -12 4 -7 3 -8 -4 -4 -7 4 -12 12 -12 17 0 16 60 2 84 -19z
m192 9 c0 -11 -5 -17 -13 -14 -7 3 -13 11 -13 19 0 8 6 14 13 14 7 0 13 -8 13
-19z m123 -6 c2 -14 -2 -17 -18 -12 -16 4 -21 1 -19 -10 2 -9 -8 -19 -22 -25
-13 -5 -21 -6 -17 -2 4 4 1 14 -6 22 -10 13 -9 15 5 9 10 -3 20 -1 24 5 5 7 2
8 -7 4 -8 -4 -3 2 10 14 27 23 44 22 50 -5z m691 22 c0 -1 -24 -25 -52 -52
l-53 -50 50 53 c46 48 55 57 55 49z m-867 -14 c-7 -2 -19 -2 -25 0 -7 3 -2 5
12 5 14 0 19 -2 13 -5z m801 -18 c-4 -8 -8 -15 -10 -15 -2 0 -4 7 -4 15 0 8 4
15 10 15 5 0 7 -7 4 -15z m-742 -23 c-6 -2 -12 -8 -12 -13 0 -6 4 -8 9 -4 5 3
12 1 15 -3 3 -5 -5 -9 -17 -8 -15 1 -23 8 -25 23 -3 18 1 20 20 15 12 -3 17
-7 10 -10z m-46 -9 c-3 -7 -1 -13 4 -13 16 0 11 -14 -9 -27 -15 -10 -22 -8
-40 8 -11 11 -21 16 -21 10 0 -13 -33 -7 -36 8 -1 6 0 7 2 2 6 -11 34 -3 34 9
0 5 -8 11 -17 13 -10 3 6 5 35 4 40 0 52 -3 48 -14z m194 13 c0 -3 -4 -8 -10
-11 -5 -3 -10 -1 -10 4 0 6 5 11 10 11 6 0 10 -2 10 -4z m-370 -142 c48 -50
76 -115 67 -152 -5 -20 -7 -14 -26 56 -7 23 -16 40 -21 37 -6 -3 -7 0 -4 8 4
13 -55 76 -74 78 -4 0 -16 3 -27 5 -26 7 -54 6 -84 -1 -20 -5 -21 -4 -10 8 8
7 26 22 42 31 21 14 26 24 21 40 -4 15 5 10 31 -19 20 -22 59 -63 85 -91z
m-617 99 c-7 -2 -19 -2 -25 0 -7 3 -2 5 12 5 14 0 19 -2 13 -5z m1430 0 c-7
-2 -19 -2 -25 0 -7 3 -2 5 12 5 14 0 19 -2 13 -5z m-728 -32 c3 -6 -4 -9 -15
-8 -11 1 -20 5 -20 9 0 11 28 10 35 -1z m653 -17 c-7 -15 -14 -21 -16 -15 -2
7 2 18 8 26 18 22 21 18 8 -11z m106 14 c43 -19 46 -77 5 -98 -23 -13 -79 12
-79 34 0 8 -3 22 -7 32 -4 12 -3 15 5 10 7 -4 12 -1 12 8 0 13 13 23 32 25 4
1 18 -4 32 -11z m90 -32 c-10 -8 -21 -12 -24 -10 -5 6 21 24 34 24 6 0 1 -6
-10 -14z m-705 -33 c8 -21 16 -43 18 -49 2 -7 -10 -17 -28 -23 -45 -16 -60
-13 -21 4 34 15 44 45 15 45 -12 0 -14 3 -6 8 7 5 9 13 4 21 -7 11 -15 11 -42
2 -42 -14 -49 -7 -12 13 44 24 58 20 72 -21z m785 18 c-10 -10 -22 -17 -26
-15 -3 2 -8 1 -10 -3 -7 -17 -88 -63 -88 -51 0 22 14 35 65 61 61 32 87 35 59
8z m-1215 7 c-2 -2 -21 -19 -42 -37 -20 -19 -37 -32 -37 -27 0 10 62 66 74 66
5 0 7 -1 5 -2z m-409 -18 c13 -9 13 -10 0 -10 -13 0 -13 -1 0 -10 20 -13 33
-13 24 1 -4 8 0 8 15 0 25 -14 28 -23 4 -14 -11 4 -14 3 -9 -5 4 -7 -8 -5 -29
5 -20 10 -31 19 -25 21 9 3 9 7 -1 13 -8 5 -9 9 -4 9 6 0 17 -5 25 -10z m184
-56 c3 -8 1 -14 -5 -14 -6 0 -7 -5 -3 -12 4 -6 -4 -3 -17 7 -14 10 -26 29 -27
42 -2 22 -1 23 22 8 13 -9 27 -23 30 -31z m526 32 c0 -7 3 -28 6 -45 5 -24 3
-31 -8 -31 -9 0 -18 13 -22 31 -9 47 -7 59 9 59 8 0 15 -6 15 -14z m-541 -78
c13 -10 31 -18 40 -19 10 0 12 -2 3 -6 -6 -2 -10 -9 -6 -14 3 -5 1 -9 -3 -9
-13 0 -126 69 -141 86 -8 9 -8 10 0 4 20 -16 32 -11 17 7 -15 18 43 -13 90
-49z m151 48 c0 -2 -7 -7 -16 -10 -8 -3 -12 -2 -9 4 6 10 25 14 25 6z m130 -6
c0 -5 -9 -10 -20 -10 -11 0 -20 5 -20 10 0 6 9 10 20 10 11 0 20 -4 20 -10z
m118 -46 c2 -13 0 -15 -6 -6 -4 6 -17 19 -28 27 -18 14 -18 15 6 6 14 -4 26
-17 28 -27z m-327 -4 c6 0 7 -5 3 -11 -8 -14 -24 8 -23 31 1 11 3 10 6 -2 2
-10 9 -18 14 -18z m268 -14 c22 4 23 4 9 -6 -10 -6 -18 -19 -18 -28 -1 -16 -2
-16 -14 1 -7 9 -20 17 -29 17 -8 0 -18 7 -21 16 -12 31 -6 35 20 15 18 -14 35
-19 53 -15z m1026 -16 c-3 -5 -12 -10 -18 -10 -7 0 -6 4 3 10 19 12 23 12 15
0z m-626 -177 c-1 -113 -4 -145 -10 -113 -11 66 -11 270 1 270 6 0 10 -58 9
-157z m104 124 c35 -24 34 -42 -3 -57 -16 -7 -32 -21 -35 -31 -7 -21 -13 -23
-34 -10 -15 10 -20 88 -7 109 10 16 47 11 79 -11z m-503 -13 c0 -8 -4 -12 -10
-9 -5 3 -10 13 -10 21 0 8 5 12 10 9 6 -3 10 -13 10 -21z m175 0 c9 -15 12
-23 6 -20 -11 7 -35 46 -28 46 3 0 12 -12 22 -26z m786 13 c-7 -7 -18 -7 -33
0 -20 9 -20 10 10 10 22 0 29 -4 23 -10z m-1076 -17 c3 -5 1 -10 -4 -10 -6 0
-11 5 -11 10 0 6 2 10 4 10 3 0 8 -4 11 -10z m1075 -27 c0 -7 -4 -13 -9 -13
-5 0 -11 6 -14 13 -3 8 1 14 9 14 8 0 14 -6 14 -14z m-651 4 c-2 -1 -15 -11
-29 -22 l-25 -20 19 23 c11 12 24 22 29 22 6 0 8 -1 6 -3z m-89 -44 c-8 -3
-23 -14 -34 -24 -11 -11 -22 -16 -25 -13 -8 8 41 44 59 43 13 0 13 -1 0 -6z
m100 -13 c-24 -15 -37 -11 -16 5 11 8 22 12 25 9 3 -3 -1 -9 -9 -14z m-449 -7
c13 -16 12 -17 -3 -4 -10 7 -18 15 -18 17 0 8 8 3 21 -13z m229 1 c-8 -8 -23
-20 -34 -25 -13 -7 -9 -1 9 15 34 29 43 33 25 10z m217 -26 c-2 -7 -10 -12
-17 -10 -8 2 -9 -5 -4 -20 6 -19 5 -21 -8 -11 -12 11 -29 2 -96 -47 -45 -33
-82 -56 -82 -52 0 4 27 28 61 52 34 25 75 57 93 72 32 29 61 37 53 16z m-280
-14 c-3 -3 -12 -4 -19 -1 -8 3 -5 6 6 6 11 1 17 -2 13 -5z m63 -134 c0 -5 -5
-10 -11 -10 -5 0 -7 5 -4 10 3 6 8 10 11 10 2 0 4 -4 4 -10z m-439 -72 c-20
-20 -38 -33 -40 -27 -7 22 -51 29 -85 15 -42 -17 -46 -24 -55 -92 -6 -44 -5
-54 6 -50 17 7 17 -12 -1 -29 -19 -19 -53 6 -76 57 -17 39 -17 52 6 127 4 13
2 26 -4 30 -5 3 56 6 137 6 l148 0 -36 -37z m75 -48 c-5 -16 -13 -57 -22 -105
-11 -61 -26 -45 -31 32 -2 32 -5 63 -7 69 -3 7 6 9 22 7 21 -4 24 -2 12 6 -12
8 -11 10 8 8 15 -1 21 -6 18 -17z m248 -5 c-12 -18 -15 -42 -12 -92 3 -68 3
-68 -24 -71 -23 -3 -27 0 -21 15 3 10 10 23 15 30 12 15 -20 53 -38 46 -8 -3
-14 0 -14 6 0 6 -4 11 -9 11 -5 0 -9 -6 -8 -12 0 -7 -1 -28 -1 -47 -2 -33 -3
-34 -17 -15 -16 21 -21 79 -5 69 6 -4 9 3 7 15 -3 29 43 65 71 56 14 -5 18
-13 15 -26 -3 -11 -10 -18 -15 -17 -6 1 -12 -3 -15 -10 -2 -7 4 -11 16 -10 12
1 22 11 26 25 6 25 25 51 38 52 4 0 0 -11 -9 -25z m289 -6 c-6 -29 -4 -30 23
-27 28 3 30 6 21 38 -2 8 -2 12 0 8 3 -5 17 -8 31 -7 24 0 25 1 7 9 -16 7 -17
9 -3 9 26 1 33 -20 8 -26 -15 -4 -18 -8 -10 -13 7 -4 15 -39 18 -79 4 -65 3
-71 -14 -71 -14 0 -16 2 -6 9 11 7 11 9 -2 14 -18 7 -22 57 -6 73 7 7 -4 11
-34 13 -42 2 -45 0 -48 -25 -2 -15 -10 -28 -18 -29 -12 -2 -16 10 -18 56 -3
53 -1 58 20 62 16 3 15 4 -5 2 -15 -1 -30 2 -33 7 -3 4 13 8 35 8 40 0 40 0
34 -31z m-104 5 c24 -8 3 -17 -41 -18 -44 -1 -62 -20 -29 -31 12 -3 21 -13 21
-21 0 -9 -5 -12 -12 -8 -7 4 -8 3 -4 -4 4 -6 13 -9 21 -6 18 7 32 -23 18 -37
-7 -7 -16 -1 -27 16 -10 15 -31 31 -47 37 -16 6 -29 17 -29 26 0 18 19 53 20
37 0 -5 5 -2 11 8 10 17 47 17 98 1z m331 -105 c0 -6 9 -8 21 -4 15 5 19 4 14
-5 -4 -7 -1 -10 8 -8 18 3 19 -7 4 -39 -13 -30 -27 -29 -27 0 0 31 -18 47 -54
48 -30 1 -30 1 -6 9 36 11 40 11 40 -1z m123 4 c-7 -2 -19 -2 -25 0 -7 3 -2 5
12 5 14 0 19 -2 13 -5z m-160 -46 c-11 -49 -15 -53 -29 -22 -19 43 -17 53 10
48 18 -4 23 -10 19 -26z m190 26 c-25 -3 -33 -9 -33 -24 0 -10 -5 -19 -10 -19
-6 0 -6 -7 1 -19 14 -22 6 -51 -15 -51 -12 0 -15 14 -15 60 l1 60 51 -2 c36
-1 42 -2 20 -5z m-380 -27 c3 -7 -5 -12 -22 -13 -23 -2 -24 -1 -6 7 18 8 18 9
2 9 -10 1 -16 5 -12 11 7 11 32 3 38 -14z m-158 4 c-3 -5 -12 -10 -18 -10 -7
0 -6 4 3 10 19 12 23 12 15 0z m-385 -10 c0 -5 -5 -10 -11 -10 -5 0 -7 5 -4
10 3 6 8 10 11 10 2 0 4 -4 4 -10z m350 -1 c0 -5 -9 -9 -20 -9 -11 0 -20 4
-20 8 0 4 9 8 20 9 11 1 20 -2 20 -8z m-383 -5 c-3 -3 -12 -4 -19 -1 -8 3 -5
6 6 6 11 1 17 -2 13 -5z m102 -3 c7 -5 9 -11 5 -14 -5 -3 -15 1 -22 9 -14 16
-5 18 17 5z m91 -1 c0 -5 -2 -10 -4 -10 -3 0 -8 5 -11 10 -3 6 -1 10 4 10 6 0
11 -4 11 -10z m590 -60 c0 -5 -2 -10 -4 -10 -3 0 -8 5 -11 10 -3 6 -1 10 4 10
6 0 11 -4 11 -10z m40 6 c0 -3 -4 -8 -10 -11 -5 -3 -10 -1 -10 4 0 6 5 11 10
11 6 0 10 -2 10 -4z m-478 -18 c-5 -7 -12 -28 -15 -45 -5 -31 -4 -32 16 -22
35 18 57 51 45 66 -8 10 2 13 51 13 67 0 77 -11 31 -35 -34 -18 -64 -58 -57
-77 4 -8 8 -5 12 9 4 12 13 19 19 17 10 -4 11 -18 5 -55 -4 -28 -5 -58 -2 -67
6 -14 5 -15 -9 -2 -9 8 -14 18 -11 23 2 4 -4 7 -14 7 -10 1 -27 15 -38 33 -28
43 -48 41 -56 -6 -7 -46 -28 -87 -44 -87 -25 0 -33 27 -37 123 -3 72 -8 101
-18 108 -10 6 10 9 59 9 58 0 71 -3 63 -12z m279 -52 c-7 -8 -15 -40 -18 -70
-3 -31 -10 -56 -14 -56 -5 0 -9 8 -9 18 0 13 -2 14 -9 3 -6 -9 -11 4 -16 40
-4 30 -12 60 -17 67 -8 9 1 12 42 12 44 0 51 -2 41 -14z m153 -8 c9 -13 14
-17 10 -9 -4 9 -3 12 3 8 6 -4 13 -16 16 -28 5 -20 3 -21 -33 -16 -38 5 -38 5
-44 -35 -4 -21 -4 -43 -1 -49 4 -5 -1 -16 -9 -25 -9 -8 -16 -14 -17 -12 0 2
-2 19 -4 39 -5 66 -17 124 -27 137 -8 9 1 12 40 12 40 0 53 -4 66 -22z m76 12
c-22 -5 -27 -8 -13 -9 31 -2 36 -16 17 -46 -10 -15 -12 -25 -5 -25 6 0 11 -15
11 -33 0 -28 -4 -33 -25 -35 -19 -1 -25 3 -25 19 0 11 4 18 8 15 7 -4 9 29 4
76 -1 9 -9 24 -18 32 -14 15 -11 16 33 15 47 -2 47 -2 13 -9z m240 0 l-35 -7
38 -2 c40 -1 46 -11 22 -31 -12 -10 -19 -10 -27 -2 -32 32 -108 -3 -108 -49 0
-13 -4 -18 -12 -13 -8 5 -9 2 -5 -9 4 -11 1 -17 -9 -17 -9 0 -14 -6 -11 -12 2
-7 11 -13 19 -12 7 1 15 -8 16 -20 0 -11 -2 -16 -6 -10 -4 6 -15 13 -25 17
-19 7 -39 50 -32 69 11 34 13 84 3 95 -8 11 11 13 98 12 75 -1 98 -4 74 -9z
m265 0 c-18 -7 -18 -8 7 -15 37 -9 24 -28 -13 -20 -61 14 -124 -23 -70 -40 29
-9 83 -74 74 -88 -5 -8 -8 -7 -11 4 -2 11 -10 15 -23 12 -11 -3 -19 -2 -18 3
1 5 -1 17 -5 26 -6 14 -12 15 -27 7 -16 -8 -19 -6 -19 11 0 12 -5 18 -10 15
-6 -4 -8 -10 -5 -15 3 -5 -8 -4 -25 2 -30 10 -30 11 -14 29 9 11 13 19 8 19
-5 1 2 9 15 20 12 11 27 17 32 14 5 -3 9 -1 9 4 0 5 15 7 33 5 26 -3 28 -1 12
6 -16 8 -11 10 25 10 33 0 40 -3 25 -9z m-545 -90 c0 -11 -2 -20 -3 -20 -2 0
-12 9 -22 20 -18 19 -17 20 3 20 15 0 22 -6 22 -20z m290 -10 c28 8 28 7 18
-16 -15 -32 -40 -30 -56 3 -7 16 -8 23 -1 16 7 -7 21 -8 39 -3z m-520 -62 c0
-6 8 -17 18 -25 16 -13 16 -13 -3 -11 -11 2 -23 8 -27 13 -11 15 -9 47 2 40 6
-3 10 -11 10 -17z m-140 -23 c0 -5 -5 -3 -10 5 -5 8 -10 20 -10 25 0 6 5 3 10
-5 5 -8 10 -19 10 -25z"/>
<path d="M1200 1816 c0 -2 7 -7 16 -10 8 -3 12 -2 9 4 -6 10 -25 14 -25 6z"/>
<path d="M382 1769 c2 -6 8 -10 13 -10 5 0 11 4 13 10 2 6 -4 11 -13 11 -9 0
-15 -5 -13 -11z"/>
<path d="M1900 1746 c0 -2 8 -10 18 -17 15 -13 16 -12 3 4 -13 16 -21 21 -21
13z"/>
<path d="M771 1694 c0 -11 3 -14 6 -6 3 7 2 16 -1 19 -3 4 -6 -2 -5 -13z"/>
<path d="M540 1556 c0 -9 5 -16 10 -16 6 0 10 4 10 9 0 6 -4 13 -10 16 -5 3
-10 -1 -10 -9z"/>
<path d="M540 1311 c0 -6 4 -12 8 -15 5 -3 9 1 9 9 0 8 -4 15 -9 15 -4 0 -8
-4 -8 -9z"/>
<path d="M495 1274 c26 -20 75 -46 75 -39 0 6 -77 55 -87 55 -5 0 1 -8 12 -16z"/>
<path d="M800 766 c0 -2 7 -7 16 -10 8 -3 12 -2 9 4 -6 10 -25 14 -25 6z"/>
</g>
</svg>
